{"glyphs":{"0":{"ha":1360,"x_min":0,"x_max":1190,"o":"m 190 850 l 318 850 q 340 914 340 850 q 318 977 340 977 l 190 977 q 170 914 170 977 q 190 850 170 850 m 700 850 l 998 850 q 1020 914 1020 850 q 998 977 1020 977 l 700 977 q 680 914 680 977 q 700 850 680 850 m 360 1020 l 828 1020 q 850 1084 850 1020 q 828 1147 850 1147 l 360 1147 q 340 1084 340 1147 q 360 1020 340 1020 m 20 680 l 318 680 q 340 744 340 680 q 318 808 340 808 l 20 808 q 0 744 0 808 q 20 680 0 680 m 870 680 l 1168 680 q 1190 744 1190 680 q 1168 808 1190 808 l 870 808 q 850 744 850 808 q 870 680 850 680 m 20 340 l 318 340 q 340 404 340 340 q 318 468 340 468 l 20 468 q 0 404 0 468 q 20 340 0 340 m 870 340 l 1168 340 q 1190 404 1190 340 q 1168 468 1190 468 l 870 468 q 850 404 850 468 q 870 340 850 340 m 20 510 l 318 510 q 340 574 340 510 q 318 638 340 638 l 20 638 q 0 574 0 638 q 20 510 0 510 m 190 170 l 488 170 q 510 234 510 170 q 488 298 510 298 l 190 298 q 170 234 170 298 q 190 170 170 170 m 870 170 l 998 170 q 1020 234 1020 170 q 998 298 1020 298 l 870 298 q 850 234 850 298 q 870 170 850 170 m 360 0 l 828 0 q 850 64 850 0 q 828 128 850 128 l 360 128 q 340 64 340 128 q 360 0 340 0 m 870 510 l 1168 510 q 1190 574 1190 510 q 1168 638 1190 638 l 870 638 q 850 574 850 638 q 870 510 850 510 z "},"1":{"ha":1360,"x_min":170,"x_max":1190,"o":"m 530 1020 l 828 1020 q 850 1084 850 1020 q 828 1147 850 1147 l 530 1147 q 510 1084 510 1147 q 530 1020 510 1020 m 360 850 l 828 850 q 850 914 850 850 q 828 977 850 977 l 360 977 q 340 914 340 977 q 360 850 340 850 m 530 680 l 828 680 q 850 744 850 680 q 828 808 850 808 l 530 808 q 510 744 510 808 q 530 680 510 680 m 530 510 l 828 510 q 850 574 850 510 q 828 638 850 638 l 530 638 q 510 574 510 638 q 530 510 510 510 m 530 340 l 828 340 q 850 404 850 340 q 828 468 850 468 l 530 468 q 510 404 510 468 q 530 340 510 340 m 530 170 l 828 170 q 850 234 850 170 q 828 298 850 298 l 530 298 q 510 234 510 298 q 530 170 510 170 m 190 0 l 1168 0 q 1190 64 1190 0 q 1168 128 1190 128 l 190 128 q 170 64 170 128 q 190 0 170 0 z "},"2":{"ha":1360,"x_min":0,"x_max":1190,"o":"m 190 1020 l 998 1020 q 1020 1084 1020 1020 q 998 1147 1020 1147 l 190 1147 q 170 1084 170 1147 q 190 1020 170 1020 m 360 510 l 998 510 q 1020 574 1020 510 q 998 638 1020 638 l 360 638 q 340 574 340 638 q 360 510 340 510 m 870 850 l 1168 850 q 1190 914 1190 850 q 1168 977 1190 977 l 870 977 q 850 914 850 977 q 870 850 850 850 m 190 340 l 828 340 q 850 404 850 340 q 828 468 850 468 l 190 468 q 170 404 170 468 q 190 340 170 340 m 20 170 l 488 170 q 510 234 510 170 q 488 298 510 298 l 20 298 q 0 234 0 298 q 20 170 0 170 m 20 0 l 1168 0 q 1190 64 1190 0 q 1168 128 1190 128 l 20 128 q 0 64 0 128 q 20 0 0 0 m 700 680 l 1168 680 q 1190 744 1190 680 q 1168 808 1190 808 l 700 808 q 680 744 680 808 q 700 680 680 680 m 20 850 l 318 850 q 340 914 340 850 q 318 977 340 977 l 20 977 q 0 914 0 977 q 20 850 0 850 z "},"3":{"ha":1360,"x_min":0,"x_max":1190,"o":"m 190 1020 l 1168 1020 q 1190 1084 1190 1020 q 1168 1147 1190 1147 l 190 1147 q 170 1084 170 1147 q 190 1020 170 1020 m 360 510 l 998 510 q 1020 574 1020 510 q 998 638 1020 638 l 360 638 q 340 574 340 638 q 360 510 340 510 m 700 850 l 998 850 q 1020 914 1020 850 q 998 977 1020 977 l 700 977 q 680 914 680 977 q 700 850 680 850 m 870 340 l 1168 340 q 1190 404 1190 340 q 1168 468 1190 468 l 870 468 q 850 404 850 468 q 870 340 850 340 m 870 170 l 1168 170 q 1190 234 1190 170 q 1168 298 1190 298 l 870 298 q 850 234 850 298 q 870 170 850 170 m 190 0 l 998 0 q 1020 64 1020 0 q 998 128 1020 128 l 190 128 q 170 64 170 128 q 190 0 170 0 m 530 680 l 828 680 q 850 744 850 680 q 828 808 850 808 l 530 808 q 510 744 510 808 q 530 680 510 680 m 20 170 l 318 170 q 340 234 340 170 q 318 298 340 298 l 20 298 q 0 234 0 298 q 20 170 0 170 z "},"4":{"ha":1360,"x_min":0,"x_max":1190,"o":"m 530 1020 l 998 1020 q 1020 1084 1020 1020 q 998 1147 1020 1147 l 530 1147 q 510 1084 510 1147 q 530 1020 510 1020 m 360 850 l 998 850 q 1020 914 1020 850 q 998 977 1020 977 l 360 977 q 340 914 340 977 q 360 850 340 850 m 700 170 l 998 170 q 1020 234 1020 170 q 998 298 1020 298 l 700 298 q 680 234 680 298 q 700 170 680 170 m 700 0 l 998 0 q 1020 64 1020 0 q 998 128 1020 128 l 700 128 q 680 64 680 128 q 700 0 680 0 m 20 340 l 1168 340 q 1190 404 1190 340 q 1168 468 1190 468 l 20 468 q 0 404 0 468 q 20 340 0 340 m 700 680 l 998 680 q 1020 744 1020 680 q 998 808 1020 808 l 700 808 q 680 744 680 808 q 700 680 680 680 m 20 510 l 318 510 q 340 574 340 510 q 318 638 340 638 l 20 638 q 0 574 0 638 q 20 510 0 510 m 700 510 l 998 510 q 1020 574 1020 510 q 998 638 1020 638 l 700 638 q 680 574 680 638 q 700 510 680 510 m 190 680 l 488 680 q 510 744 510 680 q 488 808 510 808 l 190 808 q 170 744 170 808 q 190 680 170 680 z "},"5":{"ha":1360,"x_min":0,"x_max":1190,"o":"m 20 1020 l 998 1020 q 1020 1084 1020 1020 q 998 1147 1020 1147 l 20 1147 q 0 1084 0 1147 q 20 1020 0 1020 m 20 850 l 318 850 q 340 914 340 850 q 318 977 340 977 l 20 977 q 0 914 0 977 q 20 850 0 850 m 870 170 l 1168 170 q 1190 234 1190 170 q 1168 298 1190 298 l 870 298 q 850 234 850 298 q 870 170 850 170 m 190 0 l 998 0 q 1020 64 1020 0 q 998 128 1020 128 l 190 128 q 170 64 170 128 q 190 0 170 0 m 20 170 l 318 170 q 340 234 340 170 q 318 298 340 298 l 20 298 q 0 234 0 298 q 20 170 0 170 m 870 510 l 1168 510 q 1190 574 1190 510 q 1168 638 1190 638 l 870 638 q 850 574 850 638 q 870 510 850 510 m 870 340 l 1168 340 q 1190 404 1190 340 q 1168 468 1190 468 l 870 468 q 850 404 850 468 q 870 340 850 340 m 20 680 l 998 680 q 1020 744 1020 680 q 998 808 1020 808 l 20 808 q 0 744 0 808 q 20 680 0 680 z "},"6":{"ha":1360,"x_min":0,"x_max":1190,"o":"m 360 1020 l 998 1020 q 1020 1084 1020 1020 q 998 1147 1020 1147 l 360 1147 q 340 1084 340 1147 q 360 1020 340 1020 m 190 850 l 488 850 q 510 914 510 850 q 488 977 510 977 l 190 977 q 170 914 170 977 q 190 850 170 850 m 870 170 l 1168 170 q 1190 234 1190 170 q 1168 298 1190 298 l 870 298 q 850 234 850 298 q 870 170 850 170 m 190 0 l 998 0 q 1020 64 1020 0 q 998 128 1020 128 l 190 128 q 170 64 170 128 q 190 0 170 0 m 20 170 l 318 170 q 340 234 340 170 q 318 298 340 298 l 20 298 q 0 234 0 298 q 20 170 0 170 m 20 340 l 318 340 q 340 404 340 340 q 318 468 340 468 l 20 468 q 0 404 0 468 q 20 340 0 340 m 870 340 l 1168 340 q 1190 404 1190 340 q 1168 468 1190 468 l 870 468 q 850 404 850 468 q 870 340 850 340 m 20 510 l 998 510 q 1020 574 1020 510 q 998 638 1020 638 l 20 638 q 0 574 0 638 q 20 510 0 510 m 20 680 l 318 680 q 340 744 340 680 q 318 808 340 808 l 20 808 q 0 744 0 808 q 20 680 0 680 z "},"7":{"ha":1360,"x_min":0,"x_max":1190,"o":"m 20 1020 l 1168 1020 q 1190 1084 1190 1020 q 1168 1147 1190 1147 l 20 1147 q 0 1084 0 1147 q 20 1020 0 1020 m 20 850 l 318 850 q 340 914 340 850 q 318 977 340 977 l 20 977 q 0 914 0 977 q 20 850 0 850 m 360 170 l 658 170 q 680 234 680 170 q 658 298 680 298 l 360 298 q 340 234 340 298 q 360 170 340 170 m 360 0 l 658 0 q 680 64 680 0 q 658 128 680 128 l 360 128 q 340 64 340 128 q 360 0 340 0 m 530 510 l 828 510 q 850 574 850 510 q 828 638 850 638 l 530 638 q 510 574 510 638 q 530 510 510 510 m 700 680 l 998 680 q 1020 744 1020 680 q 998 808 1020 808 l 700 808 q 680 744 680 808 q 700 680 680 680 m 360 340 l 658 340 q 680 404 680 340 q 658 468 680 468 l 360 468 q 340 404 340 468 q 360 340 340 340 m 870 850 l 1168 850 q 1190 914 1190 850 q 1168 977 1190 977 l 870 977 q 850 914 850 977 q 870 850 850 850 z "},"8":{"ha":1360,"x_min":0,"x_max":1190,"o":"m 190 1020 l 828 1020 q 850 1084 850 1020 q 828 1147 850 1147 l 190 1147 q 170 1084 170 1147 q 190 1020 170 1020 m 20 850 l 318 850 q 340 914 340 850 q 318 977 340 977 l 20 977 q 0 914 0 977 q 20 850 0 850 m 870 170 l 1168 170 q 1190 234 1190 170 q 1168 298 1190 298 l 870 298 q 850 234 850 298 q 870 170 850 170 m 190 0 l 998 0 q 1020 64 1020 0 q 998 128 1020 128 l 190 128 q 170 64 170 128 q 190 0 170 0 m 190 510 l 828 510 q 850 574 850 510 q 828 638 850 638 l 190 638 q 170 574 170 638 q 190 510 170 510 m 870 680 l 998 680 q 1020 744 1020 680 q 998 808 1020 808 l 870 808 q 850 744 850 808 q 870 680 850 680 m 530 340 l 1168 340 q 1190 404 1190 340 q 1168 468 1190 468 l 530 468 q 510 404 510 468 q 530 340 510 340 m 870 850 l 998 850 q 1020 914 1020 850 q 998 977 1020 977 l 870 977 q 850 914 850 977 q 870 850 850 850 m 20 680 l 488 680 q 510 744 510 680 q 488 808 510 808 l 20 808 q 0 744 0 808 q 20 680 0 680 m 20 170 l 148 170 q 170 234 170 170 q 148 298 170 298 l 20 298 q 0 234 0 298 q 20 170 0 170 m 20 340 l 148 340 q 170 404 170 340 q 148 468 170 468 l 20 468 q 0 404 0 468 q 20 340 0 340 z "},"9":{"ha":1360,"x_min":0,"x_max":1190,"o":"m 190 1020 l 998 1020 q 1020 1084 1020 1020 q 998 1147 1020 1147 l 190 1147 q 170 1084 170 1147 q 190 1020 170 1020 m 20 850 l 318 850 q 340 914 340 850 q 318 977 340 977 l 20 977 q 0 914 0 977 q 20 850 0 850 m 700 170 l 998 170 q 1020 234 1020 170 q 998 298 1020 298 l 700 298 q 680 234 680 298 q 700 170 680 170 m 190 0 l 828 0 q 850 64 850 0 q 828 128 850 128 l 190 128 q 170 64 170 128 q 190 0 170 0 m 190 510 l 1168 510 q 1190 574 1190 510 q 1168 638 1190 638 l 190 638 q 170 574 170 638 q 190 510 170 510 m 870 680 l 1168 680 q 1190 744 1190 680 q 1168 808 1190 808 l 870 808 q 850 744 850 808 q 870 680 850 680 m 870 340 l 1168 340 q 1190 404 1190 340 q 1168 468 1190 468 l 870 468 q 850 404 850 468 q 870 340 850 340 m 870 850 l 1168 850 q 1190 914 1190 850 q 1168 977 1190 977 l 870 977 q 850 914 850 977 q 870 850 850 850 m 20 680 l 318 680 q 340 744 340 680 q 318 808 340 808 l 20 808 q 0 744 0 808 q 20 680 0 680 z "}," ":{"ha":1360,"x_min":0,"x_max":0,"o":""},"!":{"ha":1360,"x_min":340,"x_max":680,"o":"m 360 170 l 658 170 q 680 234 680 170 q 658 298 680 298 l 360 298 q 340 234 340 298 q 360 170 340 170 m 360 0 l 658 0 q 680 64 680 0 q 658 128 680 128 l 360 128 q 340 64 340 128 q 360 0 340 0 m 360 680 l 658 680 q 680 744 680 680 q 658 808 680 808 l 360 808 q 340 744 340 808 q 360 680 340 680 m 360 510 l 658 510 q 680 574 680 510 q 658 638 680 638 l 360 638 q 340 574 340 638 q 360 510 340 510 m 360 1020 l 658 1020 q 680 1084 680 1020 q 658 1147 680 1147 l 360 1147 q 340 1084 340 1147 q 360 1020 340 1020 m 360 850 l 658 850 q 680 914 680 850 q 658 977 680 977 l 360 977 q 340 914 340 977 q 360 850 340 850 z "},"\"":{"ha":1360,"x_min":170,"x_max":1020,"o":"m 360 680 l 488 680 q 510 744 510 680 q 488 808 510 808 l 360 808 q 340 744 340 808 q 360 680 340 680 m 190 510 l 318 510 q 340 574 340 510 q 318 638 340 638 l 190 638 q 170 574 170 638 q 190 510 170 510 m 190 1020 l 488 1020 q 510 1084 510 1020 q 488 1147 510 1147 l 190 1147 q 170 1084 170 1147 q 190 1020 170 1020 m 190 850 l 488 850 q 510 914 510 850 q 488 977 510 977 l 190 977 q 170 914 170 977 q 190 850 170 850 m 870 680 l 998 680 q 1020 744 1020 680 q 998 808 1020 808 l 870 808 q 850 744 850 808 q 870 680 850 680 m 700 510 l 828 510 q 850 574 850 510 q 828 638 850 638 l 700 638 q 680 574 680 638 q 700 510 680 510 m 700 1020 l 998 1020 q 1020 1084 1020 1020 q 998 1147 1020 1147 l 700 1147 q 680 1084 680 1147 q 700 1020 680 1020 m 700 850 l 998 850 q 1020 914 1020 850 q 998 977 1020 977 l 700 977 q 680 914 680 977 q 700 850 680 850 z "},"#":{"ha":1360,"x_min":170,"x_max":1020,"o":"m 360 850 l 488 850 q 510 914 510 850 q 488 977 510 977 l 360 977 q 340 914 340 977 q 360 850 340 850 m 360 170 l 488 170 q 510 234 510 170 q 488 298 510 298 l 360 298 q 340 234 340 298 q 360 170 340 170 m 190 680 l 998 680 q 1020 744 1020 680 q 998 808 1020 808 l 190 808 q 170 744 170 808 q 190 680 170 680 m 190 340 l 998 340 q 1020 404 1020 340 q 998 468 1020 468 l 190 468 q 170 404 170 468 q 190 340 170 340 m 700 850 l 828 850 q 850 914 850 850 q 828 977 850 977 l 700 977 q 680 914 680 977 q 700 850 680 850 m 700 170 l 828 170 q 850 234 850 170 q 828 298 850 298 l 700 298 q 680 234 680 298 q 700 170 680 170 m 360 510 l 488 510 q 510 574 510 510 q 488 638 510 638 l 360 638 q 340 574 340 638 q 360 510 340 510 m 700 510 l 828 510 q 850 574 850 510 q 828 638 850 638 l 700 638 q 680 574 680 638 q 700 510 680 510 z "},"$":{"ha":1360,"x_min":170,"x_max":1020,"o":"m 360 850 l 998 850 q 1020 914 1020 850 q 998 977 1020 977 l 360 977 q 340 914 340 977 q 360 850 340 850 m 190 680 l 318 680 q 340 744 340 680 q 318 808 340 808 l 190 808 q 170 744 170 808 q 190 680 170 680 m 870 340 l 998 340 q 1020 404 1020 340 q 998 468 1020 468 l 870 468 q 850 404 850 468 q 870 340 850 340 m 360 510 l 828 510 q 850 574 850 510 q 828 638 850 638 l 360 638 q 340 574 340 638 q 360 510 340 510 m 190 170 l 828 170 q 850 234 850 170 q 828 298 850 298 l 190 298 q 170 234 170 298 q 190 170 170 170 m 530 1020 l 658 1020 q 680 1084 680 1020 q 658 1147 680 1147 l 530 1147 q 510 1084 510 1147 q 530 1020 510 1020 m 530 680 l 658 680 q 680 744 680 680 q 658 808 680 808 l 530 808 q 510 744 510 808 q 530 680 510 680 m 530 340 l 658 340 q 680 404 680 340 q 658 468 680 468 l 530 468 q 510 404 510 468 q 530 340 510 340 m 530 0 l 658 0 q 680 64 680 0 q 658 128 680 128 l 530 128 q 510 64 510 128 q 530 0 510 0 z "},"%":{"ha":1360,"x_min":0,"x_max":1190,"o":"m 1040 1020 l 1168 1020 q 1190 1084 1190 1020 q 1168 1147 1190 1147 l 1040 1147 q 1020 1084 1020 1147 q 1040 1020 1020 1020 m 530 510 l 658 510 q 680 574 680 510 q 658 638 680 638 l 530 638 q 510 574 510 638 q 530 510 510 510 m 870 850 l 998 850 q 1020 914 1020 850 q 998 977 1020 977 l 870 977 q 850 914 850 977 q 870 850 850 850 m 360 340 l 488 340 q 510 404 510 340 q 488 468 510 468 l 360 468 q 340 404 340 468 q 360 340 340 340 m 190 170 l 318 170 q 340 234 340 170 q 318 298 340 298 l 190 298 q 170 234 170 298 q 190 170 170 170 m 20 0 l 148 0 q 170 64 170 0 q 148 128 170 128 l 20 128 q 0 64 0 128 q 20 0 0 0 m 700 680 l 828 680 q 850 744 850 680 q 828 808 850 808 l 700 808 q 680 744 680 808 q 700 680 680 680 m 190 1020 l 318 1020 q 340 1084 340 1020 q 318 1147 340 1147 l 190 1147 q 170 1084 170 1147 q 190 1020 170 1020 m 20 850 l 148 850 q 170 914 170 850 q 148 977 170 977 l 20 977 q 0 914 0 977 q 20 850 0 850 m 190 680 l 318 680 q 340 744 340 680 q 318 808 340 808 l 190 808 q 170 744 170 808 q 190 680 170 680 m 360 850 l 488 850 q 510 914 510 850 q 488 977 510 977 l 360 977 q 340 914 340 977 q 360 850 340 850 m 870 340 l 998 340 q 1020 404 1020 340 q 998 468 1020 468 l 870 468 q 850 404 850 468 q 870 340 850 340 m 700 170 l 828 170 q 850 234 850 170 q 828 298 850 298 l 700 298 q 680 234 680 298 q 700 170 680 170 m 870 0 l 998 0 q 1020 64 1020 0 q 998 128 1020 128 l 870 128 q 850 64 850 128 q 870 0 850 0 m 1040 170 l 1168 170 q 1190 234 1190 170 q 1168 298 1190 298 l 1040 298 q 1020 234 1020 298 q 1040 170 1020 170 z "},"&":{"ha":1360,"x_min":0,"x_max":1190,"o":"m 190 1020 l 658 1020 q 680 1084 680 1020 q 658 1147 680 1147 l 190 1147 q 170 1084 170 1147 q 190 1020 170 1020 m 20 850 l 318 850 q 340 914 340 850 q 318 977 340 977 l 20 977 q 0 914 0 977 q 20 850 0 850 m 700 170 l 998 170 q 1020 234 1020 170 q 998 298 1020 298 l 700 298 q 680 234 680 298 q 700 170 680 170 m 190 0 l 658 0 q 680 64 680 0 q 658 128 680 128 l 190 128 q 170 64 170 128 q 190 0 170 0 m 190 510 l 658 510 q 680 574 680 510 q 658 638 680 638 l 190 638 q 170 574 170 638 q 190 510 170 510 m 700 680 l 828 680 q 850 744 850 680 q 828 808 850 808 l 700 808 q 680 744 680 808 q 700 680 680 680 m 530 340 l 1168 340 q 1190 404 1190 340 q 1168 468 1190 468 l 530 468 q 510 404 510 468 q 530 340 510 340 m 700 850 l 828 850 q 850 914 850 850 q 828 977 850 977 l 700 977 q 680 914 680 977 q 700 850 680 850 m 20 680 l 488 680 q 510 744 510 680 q 488 808 510 808 l 20 808 q 0 744 0 808 q 20 680 0 680 m 20 170 l 148 170 q 170 234 170 170 q 148 298 170 298 l 20 298 q 0 234 0 298 q 20 170 0 170 m 20 340 l 148 340 q 170 404 170 340 q 148 468 170 468 l 20 468 q 0 404 0 468 q 20 340 0 340 m 870 0 l 1168 0 q 1190 64 1190 0 q 1168 128 1190 128 l 870 128 q 850 64 850 128 q 870 0 850 0 z "},"'":{"ha":1360,"x_min":170,"x_max":510,"o":"m 360 680 l 488 680 q 510 744 510 680 q 488 808 510 808 l 360 808 q 340 744 340 808 q 360 680 340 680 m 190 510 l 318 510 q 340 574 340 510 q 318 638 340 638 l 190 638 q 170 574 170 638 q 190 510 170 510 m 190 1020 l 488 1020 q 510 1084 510 1020 q 488 1147 510 1147 l 190 1147 q 170 1084 170 1147 q 190 1020 170 1020 m 190 850 l 488 850 q 510 914 510 850 q 488 977 510 977 l 190 977 q 170 914 170 977 q 190 850 170 850 z "},"(":{"ha":1360,"x_min":170,"x_max":850,"o":"m 530 1020 l 828 1020 q 850 1084 850 1020 q 828 1147 850 1147 l 530 1147 q 510 1084 510 1147 q 530 1020 510 1020 m 360 850 l 658 850 q 680 914 680 850 q 658 977 680 977 l 360 977 q 340 914 340 977 q 360 850 340 850 m 190 680 l 488 680 q 510 744 510 680 q 488 808 510 808 l 190 808 q 170 744 170 808 q 190 680 170 680 m 190 340 l 488 340 q 510 404 510 340 q 488 468 510 468 l 190 468 q 170 404 170 468 q 190 340 170 340 m 360 170 l 658 170 q 680 234 680 170 q 658 298 680 298 l 360 298 q 340 234 340 298 q 360 170 340 170 m 530 0 l 828 0 q 850 64 850 0 q 828 128 850 128 l 530 128 q 510 64 510 128 q 530 0 510 0 m 190 510 l 488 510 q 510 574 510 510 q 488 638 510 638 l 190 638 q 170 574 170 638 q 190 510 170 510 z "},")":{"ha":1360,"x_min":340,"x_max":1020,"o":"m 360 1020 l 658 1020 q 680 1084 680 1020 q 658 1147 680 1147 l 360 1147 q 340 1084 340 1147 q 360 1020 340 1020 m 530 850 l 828 850 q 850 914 850 850 q 828 977 850 977 l 530 977 q 510 914 510 977 q 530 850 510 850 m 700 680 l 998 680 q 1020 744 1020 680 q 998 808 1020 808 l 700 808 q 680 744 680 808 q 700 680 680 680 m 700 340 l 998 340 q 1020 404 1020 340 q 998 468 1020 468 l 700 468 q 680 404 680 468 q 700 340 680 340 m 530 170 l 828 170 q 850 234 850 170 q 828 298 850 298 l 530 298 q 510 234 510 298 q 530 170 510 170 m 360 0 l 658 0 q 680 64 680 0 q 658 128 680 128 l 360 128 q 340 64 340 128 q 360 0 340 0 m 700 510 l 998 510 q 1020 574 1020 510 q 998 638 1020 638 l 700 638 q 680 574 680 638 q 700 510 680 510 z "},"*":{"ha":1360,"x_min":170,"x_max":1020,"o":"m 360 510 l 828 510 q 850 574 850 510 q 828 638 850 638 l 360 638 q 340 574 340 638 q 360 510 340 510 m 530 680 l 658 680 q 680 744 680 680 q 658 808 680 808 l 530 808 q 510 744 510 808 q 530 680 510 680 m 530 850 l 658 850 q 680 914 680 850 q 658 977 680 977 l 530 977 q 510 914 510 977 q 530 850 510 850 m 530 170 l 658 170 q 680 234 680 170 q 658 298 680 298 l 530 298 q 510 234 510 298 q 530 170 510 170 m 530 340 l 658 340 q 680 404 680 340 q 658 468 680 468 l 530 468 q 510 404 510 468 q 530 340 510 340 m 190 680 l 318 680 q 340 744 340 680 q 318 808 340 808 l 190 808 q 170 744 170 808 q 190 680 170 680 m 190 340 l 318 340 q 340 404 340 340 q 318 468 340 468 l 190 468 q 170 404 170 468 q 190 340 170 340 m 870 680 l 998 680 q 1020 744 1020 680 q 998 808 1020 808 l 870 808 q 850 744 850 808 q 870 680 850 680 m 870 340 l 998 340 q 1020 404 1020 340 q 998 468 1020 468 l 870 468 q 850 404 850 468 q 870 340 850 340 z "},"+":{"ha":1360,"x_min":170,"x_max":1020,"o":"m 190 510 l 998 510 q 1020 574 1020 510 q 998 638 1020 638 l 190 638 q 170 574 170 638 q 190 510 170 510 m 530 680 l 658 680 q 680 744 680 680 q 658 808 680 808 l 530 808 q 510 744 510 808 q 530 680 510 680 m 530 850 l 658 850 q 680 914 680 850 q 658 977 680 977 l 530 977 q 510 914 510 977 q 530 850 510 850 m 530 170 l 658 170 q 680 234 680 170 q 658 298 680 298 l 530 298 q 510 234 510 298 q 530 170 510 170 m 530 340 l 658 340 q 680 404 680 340 q 658 468 680 468 l 530 468 q 510 404 510 468 q 530 340 510 340 z "},",":{"ha":1360,"x_min":170,"x_max":510,"o":"m 360 170 l 488 170 q 510 234 510 170 q 488 298 510 298 l 360 298 q 340 234 340 298 q 360 170 340 170 m 190 0 l 318 0 q 340 64 340 0 q 318 128 340 128 l 190 128 q 170 64 170 128 q 190 0 170 0 m 190 510 l 488 510 q 510 574 510 510 q 488 638 510 638 l 190 638 q 170 574 170 638 q 190 510 170 510 m 190 340 l 488 340 q 510 404 510 340 q 488 468 510 468 l 190 468 q 170 404 170 468 q 190 340 170 340 z "},"-":{"ha":1360,"x_min":170,"x_max":1020,"o":"m 190 510 l 998 510 q 1020 574 1020 510 q 998 638 1020 638 l 190 638 q 170 574 170 638 q 190 510 170 510 z "},".":{"ha":1360,"x_min":170,"x_max":510,"o":"m 190 170 l 488 170 q 510 234 510 170 q 488 298 510 298 l 190 298 q 170 234 170 298 q 190 170 170 170 m 190 0 l 488 0 q 510 64 510 0 q 488 128 510 128 l 190 128 q 170 64 170 128 q 190 0 170 0 z "},"/":{"ha":1360,"x_min":0,"x_max":1190,"o":"m 1168 1020 l 1040 1020 q 1020 1084 1020 1020 q 1040 1147 1020 1147 l 1168 1147 q 1190 1084 1190 1147 q 1168 1020 1190 1020 m 658 510 l 530 510 q 510 574 510 510 q 530 638 510 638 l 658 638 q 680 574 680 638 q 658 510 680 510 m 998 850 l 870 850 q 850 914 850 850 q 870 977 850 977 l 998 977 q 1020 914 1020 977 q 998 850 1020 850 m 488 340 l 360 340 q 340 404 340 340 q 360 468 340 468 l 488 468 q 510 404 510 468 q 488 340 510 340 m 318 170 l 190 170 q 170 234 170 170 q 190 298 170 298 l 318 298 q 340 234 340 298 q 318 170 340 170 m 148 0 l 20 0 q 0 64 0 0 q 20 128 0 128 l 148 128 q 170 64 170 128 q 148 0 170 0 m 828 680 l 700 680 q 680 744 680 680 q 700 808 680 808 l 828 808 q 850 744 850 808 q 828 680 850 680 z "},":":{"ha":1360,"x_min":170,"x_max":510,"o":"m 190 170 l 488 170 q 510 234 510 170 q 488 298 510 298 l 190 298 q 170 234 170 298 q 190 170 170 170 m 190 0 l 488 0 q 510 64 510 0 q 488 128 510 128 l 190 128 q 170 64 170 128 q 190 0 170 0 m 190 850 l 488 850 q 510 914 510 850 q 488 977 510 977 l 190 977 q 170 914 170 977 q 190 850 170 850 m 190 680 l 488 680 q 510 744 510 680 q 488 808 510 808 l 190 808 q 170 744 170 808 q 190 680 170 680 z "},";":{"ha":1360,"x_min":170,"x_max":510,"o":"m 360 170 l 488 170 q 510 234 510 170 q 488 298 510 298 l 360 298 q 340 234 340 298 q 360 170 340 170 m 190 0 l 318 0 q 340 64 340 0 q 318 128 340 128 l 190 128 q 170 64 170 128 q 190 0 170 0 m 190 510 l 488 510 q 510 574 510 510 q 488 638 510 638 l 190 638 q 170 574 170 638 q 190 510 170 510 m 190 340 l 488 340 q 510 404 510 340 q 488 468 510 468 l 190 468 q 170 404 170 468 q 190 340 170 340 m 190 1020 l 488 1020 q 510 1084 510 1020 q 488 1147 510 1147 l 190 1147 q 170 1084 170 1147 q 190 1020 170 1020 m 190 850 l 488 850 q 510 914 510 850 q 488 977 510 977 l 190 977 q 170 914 170 977 q 190 850 170 850 z "},"<":{"ha":1360,"x_min":170,"x_max":850,"o":"m 530 850 l 828 850 q 850 914 850 850 q 828 977 850 977 l 530 977 q 510 914 510 977 q 530 850 510 850 m 360 680 l 658 680 q 680 744 680 680 q 658 808 680 808 l 360 808 q 340 744 340 808 q 360 680 340 680 m 360 340 l 658 340 q 680 404 680 340 q 658 468 680 468 l 360 468 q 340 404 340 468 q 360 340 340 340 m 530 170 l 828 170 q 850 234 850 170 q 828 298 850 298 l 530 298 q 510 234 510 298 q 530 170 510 170 m 190 510 l 488 510 q 510 574 510 510 q 488 638 510 638 l 190 638 q 170 574 170 638 q 190 510 170 510 z "},"=":{"ha":1360,"x_min":170,"x_max":1020,"o":"m 190 680 l 998 680 q 1020 744 1020 680 q 998 808 1020 808 l 190 808 q 170 744 170 808 q 190 680 170 680 m 190 340 l 998 340 q 1020 404 1020 340 q 998 468 1020 468 l 190 468 q 170 404 170 468 q 190 340 170 340 z "},">":{"ha":1360,"x_min":340,"x_max":1020,"o":"m 360 850 l 658 850 q 680 914 680 850 q 658 977 680 977 l 360 977 q 340 914 340 977 q 360 850 340 850 m 530 680 l 828 680 q 850 744 850 680 q 828 808 850 808 l 530 808 q 510 744 510 808 q 530 680 510 680 m 530 340 l 828 340 q 850 404 850 340 q 828 468 850 468 l 530 468 q 510 404 510 468 q 530 340 510 340 m 360 170 l 658 170 q 680 234 680 170 q 658 298 680 298 l 360 298 q 340 234 340 298 q 360 170 340 170 m 700 510 l 998 510 q 1020 574 1020 510 q 998 638 1020 638 l 700 638 q 680 574 680 638 q 700 510 680 510 z "},"?":{"ha":1360,"x_min":0,"x_max":1190,"o":"m 190 1020 l 998 1020 q 1020 1084 1020 1020 q 998 1147 1020 1147 l 190 1147 q 170 1084 170 1147 q 190 1020 170 1020 m 360 510 l 658 510 q 680 574 680 510 q 658 638 680 638 l 360 638 q 340 574 340 638 q 360 510 340 510 m 870 850 l 1168 850 q 1190 914 1190 850 q 1168 977 1190 977 l 870 977 q 850 914 850 977 q 870 850 850 850 m 360 170 l 658 170 q 680 234 680 170 q 658 298 680 298 l 360 298 q 340 234 340 298 q 360 170 340 170 m 360 0 l 658 0 q 680 64 680 0 q 658 128 680 128 l 360 128 q 340 64 340 128 q 360 0 340 0 m 530 680 l 998 680 q 1020 744 1020 680 q 998 808 1020 808 l 530 808 q 510 744 510 808 q 530 680 510 680 m 20 850 l 318 850 q 340 914 340 850 q 318 977 340 977 l 20 977 q 0 914 0 977 q 20 850 0 850 z "},"@":{"ha":1360,"x_min":0,"x_max":1190,"o":"m 20 850 l 318 850 q 340 914 340 850 q 318 977 340 977 l 20 977 q 0 914 0 977 q 20 850 0 850 m 870 850 l 1168 850 q 1190 914 1190 850 q 1168 977 1190 977 l 870 977 q 850 914 850 977 q 870 850 850 850 m 190 1020 l 998 1020 q 1020 1084 1020 1020 q 998 1147 1020 1147 l 190 1147 q 170 1084 170 1147 q 190 1020 170 1020 m 20 680 l 658 680 q 680 744 680 680 q 658 808 680 808 l 20 808 q 0 744 0 808 q 20 680 0 680 m 870 680 l 1168 680 q 1190 744 1190 680 q 1168 808 1190 808 l 870 808 q 850 744 850 808 q 870 680 850 680 m 20 340 l 998 340 q 1020 404 1020 340 q 998 468 1020 468 l 20 468 q 0 404 0 468 q 20 340 0 340 m 20 510 l 318 510 q 340 574 340 510 q 318 638 340 638 l 20 638 q 0 574 0 638 q 20 510 0 510 m 20 170 l 318 170 q 340 234 340 170 q 318 298 340 298 l 20 298 q 0 234 0 298 q 20 170 0 170 m 190 0 l 998 0 q 1020 64 1020 0 q 998 128 1020 128 l 190 128 q 170 64 170 128 q 190 0 170 0 m 870 510 l 1168 510 q 1190 574 1190 510 q 1168 638 1190 638 l 870 638 q 850 574 850 638 q 870 510 850 510 m 530 510 l 658 510 q 680 574 680 510 q 658 638 680 638 l 530 638 q 510 574 510 638 q 530 510 510 510 z "},"A":{"ha":1360,"x_min":0,"x_max":1190,"o":"m 190 850 l 488 850 q 510 914 510 850 q 488 977 510 977 l 190 977 q 170 914 170 977 q 190 850 170 850 m 700 850 l 998 850 q 1020 914 1020 850 q 998 977 1020 977 l 700 977 q 680 914 680 977 q 700 850 680 850 m 360 1020 l 828 1020 q 850 1084 850 1020 q 828 1147 850 1147 l 360 1147 q 340 1084 340 1147 q 360 1020 340 1020 m 20 680 l 318 680 q 340 744 340 680 q 318 808 340 808 l 20 808 q 0 744 0 808 q 20 680 0 680 m 870 680 l 1168 680 q 1190 744 1190 680 q 1168 808 1190 808 l 870 808 q 850 744 850 808 q 870 680 850 680 m 20 510 l 318 510 q 340 574 340 510 q 318 638 340 638 l 20 638 q 0 574 0 638 q 20 510 0 510 m 870 510 l 1168 510 q 1190 574 1190 510 q 1168 638 1190 638 l 870 638 q 850 574 850 638 q 870 510 850 510 m 20 340 l 1168 340 q 1190 404 1190 340 q 1168 468 1190 468 l 20 468 q 0 404 0 468 q 20 340 0 340 m 20 170 l 318 170 q 340 234 340 170 q 318 298 340 298 l 20 298 q 0 234 0 298 q 20 170 0 170 m 870 170 l 1168 170 q 1190 234 1190 170 q 1168 298 1190 298 l 870 298 q 850 234 850 298 q 870 170 850 170 m 20 0 l 318 0 q 340 64 340 0 q 318 128 340 128 l 20 128 q 0 64 0 128 q 20 0 0 0 m 870 0 l 1168 0 q 1190 64 1190 0 q 1168 128 1190 128 l 870 128 q 850 64 850 128 q 870 0 850 0 z "},"B":{"ha":1360,"x_min":0,"x_max":1190,"o":"m 20 850 l 318 850 q 340 914 340 850 q 318 977 340 977 l 20 977 q 0 914 0 977 q 20 850 0 850 m 870 850 l 1168 850 q 1190 914 1190 850 q 1168 977 1190 977 l 870 977 q 850 914 850 977 q 870 850 850 850 m 20 1020 l 998 1020 q 1020 1084 1020 1020 q 998 1147 1020 1147 l 20 1147 q 0 1084 0 1147 q 20 1020 0 1020 m 20 680 l 318 680 q 340 744 340 680 q 318 808 340 808 l 20 808 q 0 744 0 808 q 20 680 0 680 m 870 680 l 1168 680 q 1190 744 1190 680 q 1168 808 1190 808 l 870 808 q 850 744 850 808 q 870 680 850 680 m 20 340 l 318 340 q 340 404 340 340 q 318 468 340 468 l 20 468 q 0 404 0 468 q 20 340 0 340 m 870 340 l 1168 340 q 1190 404 1190 340 q 1168 468 1190 468 l 870 468 q 850 404 850 468 q 870 340 850 340 m 20 510 l 998 510 q 1020 574 1020 510 q 998 638 1020 638 l 20 638 q 0 574 0 638 q 20 510 0 510 m 20 170 l 318 170 q 340 234 340 170 q 318 298 340 298 l 20 298 q 0 234 0 298 q 20 170 0 170 m 870 170 l 1168 170 q 1190 234 1190 170 q 1168 298 1190 298 l 870 298 q 850 234 850 298 q 870 170 850 170 m 20 0 l 998 0 q 1020 64 1020 0 q 998 128 1020 128 l 20 128 q 0 64 0 128 q 20 0 0 0 z "},"C":{"ha":1360,"x_min":0,"x_max":1190,"o":"m 190 850 l 488 850 q 510 914 510 850 q 488 977 510 977 l 190 977 q 170 914 170 977 q 190 850 170 850 m 870 850 l 1168 850 q 1190 914 1190 850 q 1168 977 1190 977 l 870 977 q 850 914 850 977 q 870 850 850 850 m 360 1020 l 998 1020 q 1020 1084 1020 1020 q 998 1147 1020 1147 l 360 1147 q 340 1084 340 1147 q 360 1020 340 1020 m 20 680 l 318 680 q 340 744 340 680 q 318 808 340 808 l 20 808 q 0 744 0 808 q 20 680 0 680 m 20 340 l 318 340 q 340 404 340 340 q 318 468 340 468 l 20 468 q 0 404 0 468 q 20 340 0 340 m 20 510 l 318 510 q 340 574 340 510 q 318 638 340 638 l 20 638 q 0 574 0 638 q 20 510 0 510 m 190 170 l 488 170 q 510 234 510 170 q 488 298 510 298 l 190 298 q 170 234 170 298 q 190 170 170 170 m 870 170 l 1168 170 q 1190 234 1190 170 q 1168 298 1190 298 l 870 298 q 850 234 850 298 q 870 170 850 170 m 360 0 l 998 0 q 1020 64 1020 0 q 998 128 1020 128 l 360 128 q 340 64 340 128 q 360 0 340 0 z "},"D":{"ha":1360,"x_min":0,"x_max":1190,"o":"m 20 850 l 318 850 q 340 914 340 850 q 318 977 340 977 l 20 977 q 0 914 0 977 q 20 850 0 850 m 700 850 l 998 850 q 1020 914 1020 850 q 998 977 1020 977 l 700 977 q 680 914 680 977 q 700 850 680 850 m 20 1020 l 828 1020 q 850 1084 850 1020 q 828 1147 850 1147 l 20 1147 q 0 1084 0 1147 q 20 1020 0 1020 m 20 680 l 318 680 q 340 744 340 680 q 318 808 340 808 l 20 808 q 0 744 0 808 q 20 680 0 680 m 870 680 l 1168 680 q 1190 744 1190 680 q 1168 808 1190 808 l 870 808 q 850 744 850 808 q 870 680 850 680 m 20 340 l 318 340 q 340 404 340 340 q 318 468 340 468 l 20 468 q 0 404 0 468 q 20 340 0 340 m 870 340 l 1168 340 q 1190 404 1190 340 q 1168 468 1190 468 l 870 468 q 850 404 850 468 q 870 340 850 340 m 20 510 l 318 510 q 340 574 340 510 q 318 638 340 638 l 20 638 q 0 574 0 638 q 20 510 0 510 m 20 170 l 318 170 q 340 234 340 170 q 318 298 340 298 l 20 298 q 0 234 0 298 q 20 170 0 170 m 700 170 l 998 170 q 1020 234 1020 170 q 998 298 1020 298 l 700 298 q 680 234 680 298 q 700 170 680 170 m 20 0 l 828 0 q 850 64 850 0 q 828 128 850 128 l 20 128 q 0 64 0 128 q 20 0 0 0 m 870 510 l 1168 510 q 1190 574 1190 510 q 1168 638 1190 638 l 870 638 q 850 574 850 638 q 870 510 850 510 z "},"E":{"ha":1360,"x_min":0,"x_max":1190,"o":"m 20 850 l 318 850 q 340 914 340 850 q 318 977 340 977 l 20 977 q 0 914 0 977 q 20 850 0 850 m 20 1020 l 1168 1020 q 1190 1084 1190 1020 q 1168 1147 1190 1147 l 20 1147 q 0 1084 0 1147 q 20 1020 0 1020 m 20 680 l 318 680 q 340 744 340 680 q 318 808 340 808 l 20 808 q 0 744 0 808 q 20 680 0 680 m 20 340 l 318 340 q 340 404 340 340 q 318 468 340 468 l 20 468 q 0 404 0 468 q 20 340 0 340 m 20 510 l 998 510 q 1020 574 1020 510 q 998 638 1020 638 l 20 638 q 0 574 0 638 q 20 510 0 510 m 20 170 l 318 170 q 340 234 340 170 q 318 298 340 298 l 20 298 q 0 234 0 298 q 20 170 0 170 m 20 0 l 1168 0 q 1190 64 1190 0 q 1168 128 1190 128 l 20 128 q 0 64 0 128 q 20 0 0 0 z "},"F":{"ha":1360,"x_min":0,"x_max":1190,"o":"m 20 850 l 318 850 q 340 914 340 850 q 318 977 340 977 l 20 977 q 0 914 0 977 q 20 850 0 850 m 20 1020 l 1168 1020 q 1190 1084 1190 1020 q 1168 1147 1190 1147 l 20 1147 q 0 1084 0 1147 q 20 1020 0 1020 m 20 680 l 318 680 q 340 744 340 680 q 318 808 340 808 l 20 808 q 0 744 0 808 q 20 680 0 680 m 20 340 l 318 340 q 340 404 340 340 q 318 468 340 468 l 20 468 q 0 404 0 468 q 20 340 0 340 m 20 510 l 998 510 q 1020 574 1020 510 q 998 638 1020 638 l 20 638 q 0 574 0 638 q 20 510 0 510 m 20 170 l 318 170 q 340 234 340 170 q 318 298 340 298 l 20 298 q 0 234 0 298 q 20 170 0 170 m 20 0 l 318 0 q 340 64 340 0 q 318 128 340 128 l 20 128 q 0 64 0 128 q 20 0 0 0 z "},"G":{"ha":1360,"x_min":0,"x_max":1190,"o":"m 190 850 l 488 850 q 510 914 510 850 q 488 977 510 977 l 190 977 q 170 914 170 977 q 190 850 170 850 m 700 510 l 1168 510 q 1190 574 1190 510 q 1168 638 1190 638 l 700 638 q 680 574 680 638 q 700 510 680 510 m 360 1020 l 1168 1020 q 1190 1084 1190 1020 q 1168 1147 1190 1147 l 360 1147 q 340 1084 340 1147 q 360 1020 340 1020 m 20 680 l 318 680 q 340 744 340 680 q 318 808 340 808 l 20 808 q 0 744 0 808 q 20 680 0 680 m 20 340 l 318 340 q 340 404 340 340 q 318 468 340 468 l 20 468 q 0 404 0 468 q 20 340 0 340 m 20 510 l 318 510 q 340 574 340 510 q 318 638 340 638 l 20 638 q 0 574 0 638 q 20 510 0 510 m 190 170 l 488 170 q 510 234 510 170 q 488 298 510 298 l 190 298 q 170 234 170 298 q 190 170 170 170 m 870 170 l 1168 170 q 1190 234 1190 170 q 1168 298 1190 298 l 870 298 q 850 234 850 298 q 870 170 850 170 m 360 0 l 1168 0 q 1190 64 1190 0 q 1168 128 1190 128 l 360 128 q 340 64 340 128 q 360 0 340 0 m 870 340 l 1168 340 q 1190 404 1190 340 q 1168 468 1190 468 l 870 468 q 850 404 850 468 q 870 340 850 340 z "},"H":{"ha":1360,"x_min":0,"x_max":1190,"o":"m 20 850 l 318 850 q 340 914 340 850 q 318 977 340 977 l 20 977 q 0 914 0 977 q 20 850 0 850 m 20 680 l 318 680 q 340 744 340 680 q 318 808 340 808 l 20 808 q 0 744 0 808 q 20 680 0 680 m 20 340 l 318 340 q 340 404 340 340 q 318 468 340 468 l 20 468 q 0 404 0 468 q 20 340 0 340 m 20 510 l 1168 510 q 1190 574 1190 510 q 1168 638 1190 638 l 20 638 q 0 574 0 638 q 20 510 0 510 m 20 170 l 318 170 q 340 234 340 170 q 318 298 340 298 l 20 298 q 0 234 0 298 q 20 170 0 170 m 20 1020 l 318 1020 q 340 1084 340 1020 q 318 1147 340 1147 l 20 1147 q 0 1084 0 1147 q 20 1020 0 1020 m 20 0 l 318 0 q 340 64 340 0 q 318 128 340 128 l 20 128 q 0 64 0 128 q 20 0 0 0 m 870 850 l 1168 850 q 1190 914 1190 850 q 1168 977 1190 977 l 870 977 q 850 914 850 977 q 870 850 850 850 m 870 680 l 1168 680 q 1190 744 1190 680 q 1168 808 1190 808 l 870 808 q 850 744 850 808 q 870 680 850 680 m 870 340 l 1168 340 q 1190 404 1190 340 q 1168 468 1190 468 l 870 468 q 850 404 850 468 q 870 340 850 340 m 870 170 l 1168 170 q 1190 234 1190 170 q 1168 298 1190 298 l 870 298 q 850 234 850 298 q 870 170 850 170 m 870 1020 l 1168 1020 q 1190 1084 1190 1020 q 1168 1147 1190 1147 l 870 1147 q 850 1084 850 1147 q 870 1020 850 1020 m 870 0 l 1168 0 q 1190 64 1190 0 q 1168 128 1190 128 l 870 128 q 850 64 850 128 q 870 0 850 0 z "},"I":{"ha":1360,"x_min":170,"x_max":1190,"o":"m 190 1020 l 1168 1020 q 1190 1084 1190 1020 q 1168 1147 1190 1147 l 190 1147 q 170 1084 170 1147 q 190 1020 170 1020 m 530 850 l 828 850 q 850 914 850 850 q 828 977 850 977 l 530 977 q 510 914 510 977 q 530 850 510 850 m 530 680 l 828 680 q 850 744 850 680 q 828 808 850 808 l 530 808 q 510 744 510 808 q 530 680 510 680 m 530 510 l 828 510 q 850 574 850 510 q 828 638 850 638 l 530 638 q 510 574 510 638 q 530 510 510 510 m 530 340 l 828 340 q 850 404 850 340 q 828 468 850 468 l 530 468 q 510 404 510 468 q 530 340 510 340 m 530 170 l 828 170 q 850 234 850 170 q 828 298 850 298 l 530 298 q 510 234 510 298 q 530 170 510 170 m 190 0 l 1168 0 q 1190 64 1190 0 q 1168 128 1190 128 l 190 128 q 170 64 170 128 q 190 0 170 0 z "},"J":{"ha":1360,"x_min":0,"x_max":1190,"o":"m 870 680 l 1168 680 q 1190 744 1190 680 q 1168 808 1190 808 l 870 808 q 850 744 850 808 q 870 680 850 680 m 20 340 l 318 340 q 340 404 340 340 q 318 468 340 468 l 20 468 q 0 404 0 468 q 20 340 0 340 m 870 510 l 1168 510 q 1190 574 1190 510 q 1168 638 1190 638 l 870 638 q 850 574 850 638 q 870 510 850 510 m 20 170 l 318 170 q 340 234 340 170 q 318 298 340 298 l 20 298 q 0 234 0 298 q 20 170 0 170 m 870 170 l 1168 170 q 1190 234 1190 170 q 1168 298 1190 298 l 870 298 q 850 234 850 298 q 870 170 850 170 m 190 0 l 998 0 q 1020 64 1020 0 q 998 128 1020 128 l 190 128 q 170 64 170 128 q 190 0 170 0 m 870 340 l 1168 340 q 1190 404 1190 340 q 1168 468 1190 468 l 870 468 q 850 404 850 468 q 870 340 850 340 m 870 1020 l 1168 1020 q 1190 1084 1190 1020 q 1168 1147 1190 1147 l 870 1147 q 850 1084 850 1147 q 870 1020 850 1020 m 870 850 l 1168 850 q 1190 914 1190 850 q 1168 977 1190 977 l 870 977 q 850 914 850 977 q 870 850 850 850 z "},"K":{"ha":1360,"x_min":0,"x_max":1190,"o":"m 20 850 l 318 850 q 340 914 340 850 q 318 977 340 977 l 20 977 q 0 914 0 977 q 20 850 0 850 m 20 680 l 318 680 q 340 744 340 680 q 318 808 340 808 l 20 808 q 0 744 0 808 q 20 680 0 680 m 20 340 l 828 340 q 850 404 850 340 q 828 468 850 468 l 20 468 q 0 404 0 468 q 20 340 0 340 m 20 510 l 658 510 q 680 574 680 510 q 658 638 680 638 l 20 638 q 0 574 0 638 q 20 510 0 510 m 20 170 l 318 170 q 340 234 340 170 q 318 298 340 298 l 20 298 q 0 234 0 298 q 20 170 0 170 m 20 0 l 318 0 q 340 64 340 0 q 318 128 340 128 l 20 128 q 0 64 0 128 q 20 0 0 0 m 20 1020 l 318 1020 q 340 1084 340 1020 q 318 1147 340 1147 l 20 1147 q 0 1084 0 1147 q 20 1020 0 1020 m 700 850 l 998 850 q 1020 914 1020 850 q 998 977 1020 977 l 700 977 q 680 914 680 977 q 700 850 680 850 m 530 680 l 828 680 q 850 744 850 680 q 828 808 850 808 l 530 808 q 510 744 510 808 q 530 680 510 680 m 870 1020 l 1168 1020 q 1190 1084 1190 1020 q 1168 1147 1190 1147 l 870 1147 q 850 1084 850 1147 q 870 1020 850 1020 m 530 170 l 998 170 q 1020 234 1020 170 q 998 298 1020 298 l 530 298 q 510 234 510 298 q 530 170 510 170 m 700 0 l 1168 0 q 1190 64 1190 0 q 1168 128 1190 128 l 700 128 q 680 64 680 128 q 700 0 680 0 z "},"L":{"ha":1360,"x_min":0,"x_max":1190,"o":"m 20 850 l 318 850 q 340 914 340 850 q 318 977 340 977 l 20 977 q 0 914 0 977 q 20 850 0 850 m 20 1020 l 318 1020 q 340 1084 340 1020 q 318 1147 340 1147 l 20 1147 q 0 1084 0 1147 q 20 1020 0 1020 m 20 680 l 318 680 q 340 744 340 680 q 318 808 340 808 l 20 808 q 0 744 0 808 q 20 680 0 680 m 20 340 l 318 340 q 340 404 340 340 q 318 468 340 468 l 20 468 q 0 404 0 468 q 20 340 0 340 m 20 510 l 318 510 q 340 574 340 510 q 318 638 340 638 l 20 638 q 0 574 0 638 q 20 510 0 510 m 20 170 l 318 170 q 340 234 340 170 q 318 298 340 298 l 20 298 q 0 234 0 298 q 20 170 0 170 m 20 0 l 1168 0 q 1190 64 1190 0 q 1168 128 1190 128 l 20 128 q 0 64 0 128 q 20 0 0 0 z "},"M":{"ha":1360,"x_min":0,"x_max":1190,"o":"m 20 850 l 488 850 q 510 914 510 850 q 488 977 510 977 l 20 977 q 0 914 0 977 q 20 850 0 850 m 20 680 l 1168 680 q 1190 744 1190 680 q 1168 808 1190 808 l 20 808 q 0 744 0 808 q 20 680 0 680 m 20 340 l 318 340 q 340 404 340 340 q 318 468 340 468 l 20 468 q 0 404 0 468 q 20 340 0 340 m 20 170 l 318 170 q 340 234 340 170 q 318 298 340 298 l 20 298 q 0 234 0 298 q 20 170 0 170 m 20 1020 l 318 1020 q 340 1084 340 1020 q 318 1147 340 1147 l 20 1147 q 0 1084 0 1147 q 20 1020 0 1020 m 20 0 l 318 0 q 340 64 340 0 q 318 128 340 128 l 20 128 q 0 64 0 128 q 20 0 0 0 m 700 850 l 1168 850 q 1190 914 1190 850 q 1168 977 1190 977 l 700 977 q 680 914 680 977 q 700 850 680 850 m 870 340 l 1168 340 q 1190 404 1190 340 q 1168 468 1190 468 l 870 468 q 850 404 850 468 q 870 340 850 340 m 870 170 l 1168 170 q 1190 234 1190 170 q 1168 298 1190 298 l 870 298 q 850 234 850 298 q 870 170 850 170 m 870 1020 l 1168 1020 q 1190 1084 1190 1020 q 1168 1147 1190 1147 l 870 1147 q 850 1084 850 1147 q 870 1020 850 1020 m 870 0 l 1168 0 q 1190 64 1190 0 q 1168 128 1190 128 l 870 128 q 850 64 850 128 q 870 0 850 0 m 530 340 l 658 340 q 680 404 680 340 q 658 468 680 468 l 530 468 q 510 404 510 468 q 530 340 510 340 m 20 510 l 1168 510 q 1190 574 1190 510 q 1168 638 1190 638 l 20 638 q 0 574 0 638 q 20 510 0 510 z "},"N":{"ha":1360,"x_min":0,"x_max":1190,"o":"m 20 850 l 488 850 q 510 914 510 850 q 488 977 510 977 l 20 977 q 0 914 0 977 q 20 850 0 850 m 20 680 l 658 680 q 680 744 680 680 q 658 808 680 808 l 20 808 q 0 744 0 808 q 20 680 0 680 m 20 340 l 318 340 q 340 404 340 340 q 318 468 340 468 l 20 468 q 0 404 0 468 q 20 340 0 340 m 20 170 l 318 170 q 340 234 340 170 q 318 298 340 298 l 20 298 q 0 234 0 298 q 20 170 0 170 m 20 1020 l 318 1020 q 340 1084 340 1020 q 318 1147 340 1147 l 20 1147 q 0 1084 0 1147 q 20 1020 0 1020 m 20 0 l 318 0 q 340 64 340 0 q 318 128 340 128 l 20 128 q 0 64 0 128 q 20 0 0 0 m 870 850 l 1168 850 q 1190 914 1190 850 q 1168 977 1190 977 l 870 977 q 850 914 850 977 q 870 850 850 850 m 530 340 l 1168 340 q 1190 404 1190 340 q 1168 468 1190 468 l 530 468 q 510 404 510 468 q 530 340 510 340 m 700 170 l 1168 170 q 1190 234 1190 170 q 1168 298 1190 298 l 700 298 q 680 234 680 298 q 700 170 680 170 m 870 1020 l 1168 1020 q 1190 1084 1190 1020 q 1168 1147 1190 1147 l 870 1147 q 850 1084 850 1147 q 870 1020 850 1020 m 870 0 l 1168 0 q 1190 64 1190 0 q 1168 128 1190 128 l 870 128 q 850 64 850 128 q 870 0 850 0 m 20 510 l 1168 510 q 1190 574 1190 510 q 1168 638 1190 638 l 20 638 q 0 574 0 638 q 20 510 0 510 m 870 680 l 1168 680 q 1190 744 1190 680 q 1168 808 1190 808 l 870 808 q 850 744 850 808 q 870 680 850 680 z "},"O":{"ha":1360,"x_min":0,"x_max":1190,"o":"m 20 850 l 318 850 q 340 914 340 850 q 318 977 340 977 l 20 977 q 0 914 0 977 q 20 850 0 850 m 870 850 l 1168 850 q 1190 914 1190 850 q 1168 977 1190 977 l 870 977 q 850 914 850 977 q 870 850 850 850 m 190 1020 l 998 1020 q 1020 1084 1020 1020 q 998 1147 1020 1147 l 190 1147 q 170 1084 170 1147 q 190 1020 170 1020 m 20 680 l 318 680 q 340 744 340 680 q 318 808 340 808 l 20 808 q 0 744 0 808 q 20 680 0 680 m 870 680 l 1168 680 q 1190 744 1190 680 q 1168 808 1190 808 l 870 808 q 850 744 850 808 q 870 680 850 680 m 20 340 l 318 340 q 340 404 340 340 q 318 468 340 468 l 20 468 q 0 404 0 468 q 20 340 0 340 m 870 340 l 1168 340 q 1190 404 1190 340 q 1168 468 1190 468 l 870 468 q 850 404 850 468 q 870 340 850 340 m 20 510 l 318 510 q 340 574 340 510 q 318 638 340 638 l 20 638 q 0 574 0 638 q 20 510 0 510 m 20 170 l 318 170 q 340 234 340 170 q 318 298 340 298 l 20 298 q 0 234 0 298 q 20 170 0 170 m 870 170 l 1168 170 q 1190 234 1190 170 q 1168 298 1190 298 l 870 298 q 850 234 850 298 q 870 170 850 170 m 190 0 l 998 0 q 1020 64 1020 0 q 998 128 1020 128 l 190 128 q 170 64 170 128 q 190 0 170 0 m 870 510 l 1168 510 q 1190 574 1190 510 q 1168 638 1190 638 l 870 638 q 850 574 850 638 q 870 510 850 510 z "},"P":{"ha":1360,"x_min":0,"x_max":1190,"o":"m 20 850 l 318 850 q 340 914 340 850 q 318 977 340 977 l 20 977 q 0 914 0 977 q 20 850 0 850 m 870 850 l 1168 850 q 1190 914 1190 850 q 1168 977 1190 977 l 870 977 q 850 914 850 977 q 870 850 850 850 m 20 1020 l 998 1020 q 1020 1084 1020 1020 q 998 1147 1020 1147 l 20 1147 q 0 1084 0 1147 q 20 1020 0 1020 m 20 680 l 318 680 q 340 744 340 680 q 318 808 340 808 l 20 808 q 0 744 0 808 q 20 680 0 680 m 870 680 l 1168 680 q 1190 744 1190 680 q 1168 808 1190 808 l 870 808 q 850 744 850 808 q 870 680 850 680 m 20 340 l 998 340 q 1020 404 1020 340 q 998 468 1020 468 l 20 468 q 0 404 0 468 q 20 340 0 340 m 20 510 l 318 510 q 340 574 340 510 q 318 638 340 638 l 20 638 q 0 574 0 638 q 20 510 0 510 m 20 170 l 318 170 q 340 234 340 170 q 318 298 340 298 l 20 298 q 0 234 0 298 q 20 170 0 170 m 20 0 l 318 0 q 340 64 340 0 q 318 128 340 128 l 20 128 q 0 64 0 128 q 20 0 0 0 m 870 510 l 1168 510 q 1190 574 1190 510 q 1168 638 1190 638 l 870 638 q 850 574 850 638 q 870 510 850 510 z "},"Q":{"ha":1360,"x_min":0,"x_max":1190,"o":"m 20 850 l 318 850 q 340 914 340 850 q 318 977 340 977 l 20 977 q 0 914 0 977 q 20 850 0 850 m 870 850 l 1168 850 q 1190 914 1190 850 q 1168 977 1190 977 l 870 977 q 850 914 850 977 q 870 850 850 850 m 190 1020 l 998 1020 q 1020 1084 1020 1020 q 998 1147 1020 1147 l 190 1147 q 170 1084 170 1147 q 190 1020 170 1020 m 20 680 l 318 680 q 340 744 340 680 q 318 808 340 808 l 20 808 q 0 744 0 808 q 20 680 0 680 m 870 680 l 1168 680 q 1190 744 1190 680 q 1168 808 1190 808 l 870 808 q 850 744 850 808 q 870 680 850 680 m 20 340 l 318 340 q 340 404 340 340 q 318 468 340 468 l 20 468 q 0 404 0 468 q 20 340 0 340 m 530 340 l 1168 340 q 1190 404 1190 340 q 1168 468 1190 468 l 530 468 q 510 404 510 468 q 530 340 510 340 m 20 510 l 318 510 q 340 574 340 510 q 318 638 340 638 l 20 638 q 0 574 0 638 q 20 510 0 510 m 20 170 l 318 170 q 340 234 340 170 q 318 298 340 298 l 20 298 q 0 234 0 298 q 20 170 0 170 m 700 170 l 998 170 q 1020 234 1020 170 q 998 298 1020 298 l 700 298 q 680 234 680 298 q 700 170 680 170 m 190 0 l 828 0 q 850 64 850 0 q 828 128 850 128 l 190 128 q 170 64 170 128 q 190 0 170 0 m 870 510 l 1168 510 q 1190 574 1190 510 q 1168 638 1190 638 l 870 638 q 850 574 850 638 q 870 510 850 510 m 1040 0 l 1168 0 q 1190 64 1190 0 q 1168 128 1190 128 l 1040 128 q 1020 64 1020 128 q 1040 0 1020 0 z "},"R":{"ha":1360,"x_min":0,"x_max":1190,"o":"m 20 850 l 318 850 q 340 914 340 850 q 318 977 340 977 l 20 977 q 0 914 0 977 q 20 850 0 850 m 870 850 l 1168 850 q 1190 914 1190 850 q 1168 977 1190 977 l 870 977 q 850 914 850 977 q 870 850 850 850 m 20 1020 l 998 1020 q 1020 1084 1020 1020 q 998 1147 1020 1147 l 20 1147 q 0 1084 0 1147 q 20 1020 0 1020 m 20 680 l 318 680 q 340 744 340 680 q 318 808 340 808 l 20 808 q 0 744 0 808 q 20 680 0 680 m 870 680 l 1168 680 q 1190 744 1190 680 q 1168 808 1190 808 l 870 808 q 850 744 850 808 q 870 680 850 680 m 20 340 l 828 340 q 850 404 850 340 q 828 468 850 468 l 20 468 q 0 404 0 468 q 20 340 0 340 m 20 510 l 318 510 q 340 574 340 510 q 318 638 340 638 l 20 638 q 0 574 0 638 q 20 510 0 510 m 20 170 l 318 170 q 340 234 340 170 q 318 298 340 298 l 20 298 q 0 234 0 298 q 20 170 0 170 m 530 170 l 998 170 q 1020 234 1020 170 q 998 298 1020 298 l 530 298 q 510 234 510 298 q 530 170 510 170 m 20 0 l 318 0 q 340 64 340 0 q 318 128 340 128 l 20 128 q 0 64 0 128 q 20 0 0 0 m 700 510 l 1168 510 q 1190 574 1190 510 q 1168 638 1190 638 l 700 638 q 680 574 680 638 q 700 510 680 510 m 700 0 l 1168 0 q 1190 64 1190 0 q 1168 128 1190 128 l 700 128 q 680 64 680 128 q 700 0 680 0 z "},"S":{"ha":1360,"x_min":0,"x_max":1190,"o":"m 20 850 l 318 850 q 340 914 340 850 q 318 977 340 977 l 20 977 q 0 914 0 977 q 20 850 0 850 m 700 850 l 998 850 q 1020 914 1020 850 q 998 977 1020 977 l 700 977 q 680 914 680 977 q 700 850 680 850 m 190 1020 l 828 1020 q 850 1084 850 1020 q 828 1147 850 1147 l 190 1147 q 170 1084 170 1147 q 190 1020 170 1020 m 20 680 l 318 680 q 340 744 340 680 q 318 808 340 808 l 20 808 q 0 744 0 808 q 20 680 0 680 m 870 340 l 1168 340 q 1190 404 1190 340 q 1168 468 1190 468 l 870 468 q 850 404 850 468 q 870 340 850 340 m 190 510 l 998 510 q 1020 574 1020 510 q 998 638 1020 638 l 190 638 q 170 574 170 638 q 190 510 170 510 m 20 170 l 318 170 q 340 234 340 170 q 318 298 340 298 l 20 298 q 0 234 0 298 q 20 170 0 170 m 870 170 l 1168 170 q 1190 234 1190 170 q 1168 298 1190 298 l 870 298 q 850 234 850 298 q 870 170 850 170 m 190 0 l 998 0 q 1020 64 1020 0 q 998 128 1020 128 l 190 128 q 170 64 170 128 q 190 0 170 0 z "},"T":{"ha":1360,"x_min":170,"x_max":1190,"o":"m 530 850 l 828 850 q 850 914 850 850 q 828 977 850 977 l 530 977 q 510 914 510 977 q 530 850 510 850 m 190 1020 l 1168 1020 q 1190 1084 1190 1020 q 1168 1147 1190 1147 l 190 1147 q 170 1084 170 1147 q 190 1020 170 1020 m 530 680 l 828 680 q 850 744 850 680 q 828 808 850 808 l 530 808 q 510 744 510 808 q 530 680 510 680 m 530 170 l 828 170 q 850 234 850 170 q 828 298 850 298 l 530 298 q 510 234 510 298 q 530 170 510 170 m 530 0 l 828 0 q 850 64 850 0 q 828 128 850 128 l 530 128 q 510 64 510 128 q 530 0 510 0 m 530 510 l 828 510 q 850 574 850 510 q 828 638 850 638 l 530 638 q 510 574 510 638 q 530 510 510 510 m 530 340 l 828 340 q 850 404 850 340 q 828 468 850 468 l 530 468 q 510 404 510 468 q 530 340 510 340 z "},"U":{"ha":1360,"x_min":0,"x_max":1190,"o":"m 20 1020 l 318 1020 q 340 1084 340 1020 q 318 1147 340 1147 l 20 1147 q 0 1084 0 1147 q 20 1020 0 1020 m 190 0 l 998 0 q 1020 64 1020 0 q 998 128 1020 128 l 190 128 q 170 64 170 128 q 190 0 170 0 m 20 850 l 318 850 q 340 914 340 850 q 318 977 340 977 l 20 977 q 0 914 0 977 q 20 850 0 850 m 20 340 l 318 340 q 340 404 340 340 q 318 468 340 468 l 20 468 q 0 404 0 468 q 20 340 0 340 m 20 170 l 318 170 q 340 234 340 170 q 318 298 340 298 l 20 298 q 0 234 0 298 q 20 170 0 170 m 20 680 l 318 680 q 340 744 340 680 q 318 808 340 808 l 20 808 q 0 744 0 808 q 20 680 0 680 m 20 510 l 318 510 q 340 574 340 510 q 318 638 340 638 l 20 638 q 0 574 0 638 q 20 510 0 510 m 870 1020 l 1168 1020 q 1190 1084 1190 1020 q 1168 1147 1190 1147 l 870 1147 q 850 1084 850 1147 q 870 1020 850 1020 m 870 850 l 1168 850 q 1190 914 1190 850 q 1168 977 1190 977 l 870 977 q 850 914 850 977 q 870 850 850 850 m 870 340 l 1168 340 q 1190 404 1190 340 q 1168 468 1190 468 l 870 468 q 850 404 850 468 q 870 340 850 340 m 870 170 l 1168 170 q 1190 234 1190 170 q 1168 298 1190 298 l 870 298 q 850 234 850 298 q 870 170 850 170 m 870 680 l 1168 680 q 1190 744 1190 680 q 1168 808 1190 808 l 870 808 q 850 744 850 808 q 870 680 850 680 m 870 510 l 1168 510 q 1190 574 1190 510 q 1168 638 1190 638 l 870 638 q 850 574 850 638 q 870 510 850 510 z "},"V":{"ha":1360,"x_min":0,"x_max":1190,"o":"m 20 1020 l 318 1020 q 340 1084 340 1020 q 318 1147 340 1147 l 20 1147 q 0 1084 0 1147 q 20 1020 0 1020 m 530 0 l 658 0 q 680 64 680 0 q 658 128 680 128 l 530 128 q 510 64 510 128 q 530 0 510 0 m 20 850 l 318 850 q 340 914 340 850 q 318 977 340 977 l 20 977 q 0 914 0 977 q 20 850 0 850 m 20 680 l 318 680 q 340 744 340 680 q 318 808 340 808 l 20 808 q 0 744 0 808 q 20 680 0 680 m 20 510 l 488 510 q 510 574 510 510 q 488 638 510 638 l 20 638 q 0 574 0 638 q 20 510 0 510 m 870 1020 l 1168 1020 q 1190 1084 1190 1020 q 1168 1147 1190 1147 l 870 1147 q 850 1084 850 1147 q 870 1020 850 1020 m 870 850 l 1168 850 q 1190 914 1190 850 q 1168 977 1190 977 l 870 977 q 850 914 850 977 q 870 850 850 850 m 190 340 l 998 340 q 1020 404 1020 340 q 998 468 1020 468 l 190 468 q 170 404 170 468 q 190 340 170 340 m 360 170 l 828 170 q 850 234 850 170 q 828 298 850 298 l 360 298 q 340 234 340 298 q 360 170 340 170 m 870 680 l 1168 680 q 1190 744 1190 680 q 1168 808 1190 808 l 870 808 q 850 744 850 808 q 870 680 850 680 m 700 510 l 1168 510 q 1190 574 1190 510 q 1168 638 1190 638 l 700 638 q 680 574 680 638 q 700 510 680 510 z "},"W":{"ha":1360,"x_min":0,"x_max":1190,"o":"m 20 1020 l 318 1020 q 340 1084 340 1020 q 318 1147 340 1147 l 20 1147 q 0 1084 0 1147 q 20 1020 0 1020 m 530 510 l 658 510 q 680 574 680 510 q 658 638 680 638 l 530 638 q 510 574 510 638 q 530 510 510 510 m 20 850 l 318 850 q 340 914 340 850 q 318 977 340 977 l 20 977 q 0 914 0 977 q 20 850 0 850 m 20 680 l 318 680 q 340 744 340 680 q 318 808 340 808 l 20 808 q 0 744 0 808 q 20 680 0 680 m 20 510 l 318 510 q 340 574 340 510 q 318 638 340 638 l 20 638 q 0 574 0 638 q 20 510 0 510 m 870 1020 l 1168 1020 q 1190 1084 1190 1020 q 1168 1147 1190 1147 l 870 1147 q 850 1084 850 1147 q 870 1020 850 1020 m 870 850 l 1168 850 q 1190 914 1190 850 q 1168 977 1190 977 l 870 977 q 850 914 850 977 q 870 850 850 850 m 20 340 l 1168 340 q 1190 404 1190 340 q 1168 468 1190 468 l 20 468 q 0 404 0 468 q 20 340 0 340 m 20 170 l 488 170 q 510 234 510 170 q 488 298 510 298 l 20 298 q 0 234 0 298 q 20 170 0 170 m 870 680 l 1168 680 q 1190 744 1190 680 q 1168 808 1190 808 l 870 808 q 850 744 850 808 q 870 680 850 680 m 870 510 l 1168 510 q 1190 574 1190 510 q 1168 638 1190 638 l 870 638 q 850 574 850 638 q 870 510 850 510 m 700 170 l 1168 170 q 1190 234 1190 170 q 1168 298 1190 298 l 700 298 q 680 234 680 298 q 700 170 680 170 m 20 0 l 318 0 q 340 64 340 0 q 318 128 340 128 l 20 128 q 0 64 0 128 q 20 0 0 0 m 870 0 l 1168 0 q 1190 64 1190 0 q 1168 128 1190 128 l 870 128 q 850 64 850 128 q 870 0 850 0 z "},"X":{"ha":1360,"x_min":0,"x_max":1190,"o":"m 20 1020 l 318 1020 q 340 1084 340 1020 q 318 1147 340 1147 l 20 1147 q 0 1084 0 1147 q 20 1020 0 1020 m 20 850 l 488 850 q 510 914 510 850 q 488 977 510 977 l 20 977 q 0 914 0 977 q 20 850 0 850 m 190 680 l 998 680 q 1020 744 1020 680 q 998 808 1020 808 l 190 808 q 170 744 170 808 q 190 680 170 680 m 360 510 l 828 510 q 850 574 850 510 q 828 638 850 638 l 360 638 q 340 574 340 638 q 360 510 340 510 m 870 1020 l 1168 1020 q 1190 1084 1190 1020 q 1168 1147 1190 1147 l 870 1147 q 850 1084 850 1147 q 870 1020 850 1020 m 700 850 l 1168 850 q 1190 914 1190 850 q 1168 977 1190 977 l 700 977 q 680 914 680 977 q 700 850 680 850 m 190 340 l 998 340 q 1020 404 1020 340 q 998 468 1020 468 l 190 468 q 170 404 170 468 q 190 340 170 340 m 20 170 l 488 170 q 510 234 510 170 q 488 298 510 298 l 20 298 q 0 234 0 298 q 20 170 0 170 m 700 170 l 1168 170 q 1190 234 1190 170 q 1168 298 1190 298 l 700 298 q 680 234 680 298 q 700 170 680 170 m 20 0 l 318 0 q 340 64 340 0 q 318 128 340 128 l 20 128 q 0 64 0 128 q 20 0 0 0 m 870 0 l 1168 0 q 1190 64 1190 0 q 1168 128 1190 128 l 870 128 q 850 64 850 128 q 870 0 850 0 z "},"Y":{"ha":1360,"x_min":170,"x_max":1190,"o":"m 190 1020 l 488 1020 q 510 1084 510 1020 q 488 1147 510 1147 l 190 1147 q 170 1084 170 1147 q 190 1020 170 1020 m 190 850 l 488 850 q 510 914 510 850 q 488 977 510 977 l 190 977 q 170 914 170 977 q 190 850 170 850 m 190 680 l 488 680 q 510 744 510 680 q 488 808 510 808 l 190 808 q 170 744 170 808 q 190 680 170 680 m 360 510 l 998 510 q 1020 574 1020 510 q 998 638 1020 638 l 360 638 q 340 574 340 638 q 360 510 340 510 m 870 1020 l 1168 1020 q 1190 1084 1190 1020 q 1168 1147 1190 1147 l 870 1147 q 850 1084 850 1147 q 870 1020 850 1020 m 870 850 l 1168 850 q 1190 914 1190 850 q 1168 977 1190 977 l 870 977 q 850 914 850 977 q 870 850 850 850 m 530 340 l 828 340 q 850 404 850 340 q 828 468 850 468 l 530 468 q 510 404 510 468 q 530 340 510 340 m 530 170 l 828 170 q 850 234 850 170 q 828 298 850 298 l 530 298 q 510 234 510 298 q 530 170 510 170 m 530 0 l 828 0 q 850 64 850 0 q 828 128 850 128 l 530 128 q 510 64 510 128 q 530 0 510 0 m 870 680 l 1168 680 q 1190 744 1190 680 q 1168 808 1190 808 l 870 808 q 850 744 850 808 q 870 680 850 680 z "},"Z":{"ha":1360,"x_min":0,"x_max":1190,"o":"m 20 1020 l 1168 1020 q 1190 1084 1190 1020 q 1168 1147 1190 1147 l 20 1147 q 0 1084 0 1147 q 20 1020 0 1020 m 360 510 l 828 510 q 850 574 850 510 q 828 638 850 638 l 360 638 q 340 574 340 638 q 360 510 340 510 m 700 850 l 1168 850 q 1190 914 1190 850 q 1168 977 1190 977 l 700 977 q 680 914 680 977 q 700 850 680 850 m 190 340 l 658 340 q 680 404 680 340 q 658 468 680 468 l 190 468 q 170 404 170 468 q 190 340 170 340 m 20 170 l 488 170 q 510 234 510 170 q 488 298 510 298 l 20 298 q 0 234 0 298 q 20 170 0 170 m 20 0 l 1168 0 q 1190 64 1190 0 q 1168 128 1190 128 l 20 128 q 0 64 0 128 q 20 0 0 0 m 530 680 l 998 680 q 1020 744 1020 680 q 998 808 1020 808 l 530 808 q 510 744 510 808 q 530 680 510 680 z "},"[":{"ha":1360,"x_min":340,"x_max":850,"o":"m 360 1020 l 828 1020 q 850 1084 850 1020 q 828 1147 850 1147 l 360 1147 q 340 1084 340 1147 q 360 1020 340 1020 m 360 850 l 658 850 q 680 914 680 850 q 658 977 680 977 l 360 977 q 340 914 340 977 q 360 850 340 850 m 360 680 l 658 680 q 680 744 680 680 q 658 808 680 808 l 360 808 q 340 744 340 808 q 360 680 340 680 m 360 340 l 658 340 q 680 404 680 340 q 658 468 680 468 l 360 468 q 340 404 340 468 q 360 340 340 340 m 360 170 l 658 170 q 680 234 680 170 q 658 298 680 298 l 360 298 q 340 234 340 298 q 360 170 340 170 m 360 0 l 828 0 q 850 64 850 0 q 828 128 850 128 l 360 128 q 340 64 340 128 q 360 0 340 0 m 360 510 l 658 510 q 680 574 680 510 q 658 638 680 638 l 360 638 q 340 574 340 638 q 360 510 340 510 z "},"\\":{"ha":1360,"x_min":0,"x_max":1190,"o":"m 148 1020 l 20 1020 q 0 1084 0 1020 q 20 1147 0 1147 l 148 1147 q 170 1084 170 1147 q 148 1020 170 1020 m 658 510 l 530 510 q 510 574 510 510 q 530 638 510 638 l 658 638 q 680 574 680 638 q 658 510 680 510 m 318 850 l 190 850 q 170 914 170 850 q 190 977 170 977 l 318 977 q 340 914 340 977 q 318 850 340 850 m 828 340 l 700 340 q 680 404 680 340 q 700 468 680 468 l 828 468 q 850 404 850 468 q 828 340 850 340 m 998 170 l 870 170 q 850 234 850 170 q 870 298 850 298 l 998 298 q 1020 234 1020 298 q 998 170 1020 170 m 1168 0 l 1040 0 q 1020 64 1020 0 q 1040 128 1020 128 l 1168 128 q 1190 64 1190 128 q 1168 0 1190 0 m 488 680 l 360 680 q 340 744 340 680 q 360 808 340 808 l 488 808 q 510 744 510 808 q 488 680 510 680 z "},"]":{"ha":1360,"x_min":340,"x_max":850,"o":"m 360 1020 l 828 1020 q 850 1084 850 1020 q 828 1147 850 1147 l 360 1147 q 340 1084 340 1147 q 360 1020 340 1020 m 530 850 l 828 850 q 850 914 850 850 q 828 977 850 977 l 530 977 q 510 914 510 977 q 530 850 510 850 m 530 680 l 828 680 q 850 744 850 680 q 828 808 850 808 l 530 808 q 510 744 510 808 q 530 680 510 680 m 530 340 l 828 340 q 850 404 850 340 q 828 468 850 468 l 530 468 q 510 404 510 468 q 530 340 510 340 m 530 170 l 828 170 q 850 234 850 170 q 828 298 850 298 l 530 298 q 510 234 510 298 q 530 170 510 170 m 360 0 l 828 0 q 850 64 850 0 q 828 128 850 128 l 360 128 q 340 64 340 128 q 360 0 340 0 m 530 510 l 828 510 q 850 574 850 510 q 828 638 850 638 l 530 638 q 510 574 510 638 q 530 510 510 510 z "},"^":{"ha":1360,"x_min":340,"x_max":850,"o":"m 828 850 l 700 850 q 680 914 680 850 q 700 977 680 977 l 828 977 q 850 914 850 977 q 828 850 850 850 m 658 1020 l 530 1020 q 510 1084 510 1020 q 530 1147 510 1147 l 658 1147 q 680 1084 680 1147 q 658 1020 680 1020 m 488 850 l 360 850 q 340 914 340 850 q 360 977 340 977 l 488 977 q 510 914 510 977 q 488 850 510 850 z "},"_":{"ha":1360,"x_min":0,"x_max":1190,"o":"m 20 0 l 1168 0 q 1190 64 1190 0 q 1168 128 1190 128 l 20 128 q 0 64 0 128 q 20 0 0 0 z "},"`":{"ha":1360,"x_min":510,"x_max":850,"o":"m 658 1020 l 530 1020 q 510 1084 510 1020 q 530 1147 510 1147 l 658 1147 q 680 1084 680 1147 q 658 1020 680 1020 m 828 850 l 700 850 q 680 914 680 850 q 700 977 680 977 l 828 977 q 850 914 850 977 q 828 850 850 850 z "},"a":{"ha":1360,"x_min":0,"x_max":1190,"o":"m 190 850 l 488 850 q 510 914 510 850 q 488 977 510 977 l 190 977 q 170 914 170 977 q 190 850 170 850 m 700 850 l 998 850 q 1020 914 1020 850 q 998 977 1020 977 l 700 977 q 680 914 680 977 q 700 850 680 850 m 360 1020 l 828 1020 q 850 1084 850 1020 q 828 1147 850 1147 l 360 1147 q 340 1084 340 1147 q 360 1020 340 1020 m 20 680 l 318 680 q 340 744 340 680 q 318 808 340 808 l 20 808 q 0 744 0 808 q 20 680 0 680 m 870 680 l 1168 680 q 1190 744 1190 680 q 1168 808 1190 808 l 870 808 q 850 744 850 808 q 870 680 850 680 m 20 510 l 318 510 q 340 574 340 510 q 318 638 340 638 l 20 638 q 0 574 0 638 q 20 510 0 510 m 870 510 l 1168 510 q 1190 574 1190 510 q 1168 638 1190 638 l 870 638 q 850 574 850 638 q 870 510 850 510 m 20 340 l 1168 340 q 1190 404 1190 340 q 1168 468 1190 468 l 20 468 q 0 404 0 468 q 20 340 0 340 m 20 170 l 318 170 q 340 234 340 170 q 318 298 340 298 l 20 298 q 0 234 0 298 q 20 170 0 170 m 870 170 l 1168 170 q 1190 234 1190 170 q 1168 298 1190 298 l 870 298 q 850 234 850 298 q 870 170 850 170 m 20 0 l 318 0 q 340 64 340 0 q 318 128 340 128 l 20 128 q 0 64 0 128 q 20 0 0 0 m 870 0 l 1168 0 q 1190 64 1190 0 q 1168 128 1190 128 l 870 128 q 850 64 850 128 q 870 0 850 0 z "},"b":{"ha":1360,"x_min":0,"x_max":1190,"o":"m 20 850 l 318 850 q 340 914 340 850 q 318 977 340 977 l 20 977 q 0 914 0 977 q 20 850 0 850 m 870 850 l 1168 850 q 1190 914 1190 850 q 1168 977 1190 977 l 870 977 q 850 914 850 977 q 870 850 850 850 m 20 1020 l 998 1020 q 1020 1084 1020 1020 q 998 1147 1020 1147 l 20 1147 q 0 1084 0 1147 q 20 1020 0 1020 m 20 680 l 318 680 q 340 744 340 680 q 318 808 340 808 l 20 808 q 0 744 0 808 q 20 680 0 680 m 870 680 l 1168 680 q 1190 744 1190 680 q 1168 808 1190 808 l 870 808 q 850 744 850 808 q 870 680 850 680 m 20 340 l 318 340 q 340 404 340 340 q 318 468 340 468 l 20 468 q 0 404 0 468 q 20 340 0 340 m 870 340 l 1168 340 q 1190 404 1190 340 q 1168 468 1190 468 l 870 468 q 850 404 850 468 q 870 340 850 340 m 20 510 l 998 510 q 1020 574 1020 510 q 998 638 1020 638 l 20 638 q 0 574 0 638 q 20 510 0 510 m 20 170 l 318 170 q 340 234 340 170 q 318 298 340 298 l 20 298 q 0 234 0 298 q 20 170 0 170 m 870 170 l 1168 170 q 1190 234 1190 170 q 1168 298 1190 298 l 870 298 q 850 234 850 298 q 870 170 850 170 m 20 0 l 998 0 q 1020 64 1020 0 q 998 128 1020 128 l 20 128 q 0 64 0 128 q 20 0 0 0 z "},"c":{"ha":1360,"x_min":0,"x_max":1190,"o":"m 190 850 l 488 850 q 510 914 510 850 q 488 977 510 977 l 190 977 q 170 914 170 977 q 190 850 170 850 m 870 850 l 1168 850 q 1190 914 1190 850 q 1168 977 1190 977 l 870 977 q 850 914 850 977 q 870 850 850 850 m 360 1020 l 998 1020 q 1020 1084 1020 1020 q 998 1147 1020 1147 l 360 1147 q 340 1084 340 1147 q 360 1020 340 1020 m 20 680 l 318 680 q 340 744 340 680 q 318 808 340 808 l 20 808 q 0 744 0 808 q 20 680 0 680 m 20 340 l 318 340 q 340 404 340 340 q 318 468 340 468 l 20 468 q 0 404 0 468 q 20 340 0 340 m 20 510 l 318 510 q 340 574 340 510 q 318 638 340 638 l 20 638 q 0 574 0 638 q 20 510 0 510 m 190 170 l 488 170 q 510 234 510 170 q 488 298 510 298 l 190 298 q 170 234 170 298 q 190 170 170 170 m 870 170 l 1168 170 q 1190 234 1190 170 q 1168 298 1190 298 l 870 298 q 850 234 850 298 q 870 170 850 170 m 360 0 l 998 0 q 1020 64 1020 0 q 998 128 1020 128 l 360 128 q 340 64 340 128 q 360 0 340 0 z "},"d":{"ha":1360,"x_min":0,"x_max":1190,"o":"m 20 850 l 318 850 q 340 914 340 850 q 318 977 340 977 l 20 977 q 0 914 0 977 q 20 850 0 850 m 700 850 l 998 850 q 1020 914 1020 850 q 998 977 1020 977 l 700 977 q 680 914 680 977 q 700 850 680 850 m 20 1020 l 828 1020 q 850 1084 850 1020 q 828 1147 850 1147 l 20 1147 q 0 1084 0 1147 q 20 1020 0 1020 m 20 680 l 318 680 q 340 744 340 680 q 318 808 340 808 l 20 808 q 0 744 0 808 q 20 680 0 680 m 870 680 l 1168 680 q 1190 744 1190 680 q 1168 808 1190 808 l 870 808 q 850 744 850 808 q 870 680 850 680 m 20 340 l 318 340 q 340 404 340 340 q 318 468 340 468 l 20 468 q 0 404 0 468 q 20 340 0 340 m 870 340 l 1168 340 q 1190 404 1190 340 q 1168 468 1190 468 l 870 468 q 850 404 850 468 q 870 340 850 340 m 20 510 l 318 510 q 340 574 340 510 q 318 638 340 638 l 20 638 q 0 574 0 638 q 20 510 0 510 m 20 170 l 318 170 q 340 234 340 170 q 318 298 340 298 l 20 298 q 0 234 0 298 q 20 170 0 170 m 700 170 l 998 170 q 1020 234 1020 170 q 998 298 1020 298 l 700 298 q 680 234 680 298 q 700 170 680 170 m 20 0 l 828 0 q 850 64 850 0 q 828 128 850 128 l 20 128 q 0 64 0 128 q 20 0 0 0 m 870 510 l 1168 510 q 1190 574 1190 510 q 1168 638 1190 638 l 870 638 q 850 574 850 638 q 870 510 850 510 z "},"e":{"ha":1360,"x_min":0,"x_max":1190,"o":"m 20 850 l 318 850 q 340 914 340 850 q 318 977 340 977 l 20 977 q 0 914 0 977 q 20 850 0 850 m 20 1020 l 1168 1020 q 1190 1084 1190 1020 q 1168 1147 1190 1147 l 20 1147 q 0 1084 0 1147 q 20 1020 0 1020 m 20 680 l 318 680 q 340 744 340 680 q 318 808 340 808 l 20 808 q 0 744 0 808 q 20 680 0 680 m 20 340 l 318 340 q 340 404 340 340 q 318 468 340 468 l 20 468 q 0 404 0 468 q 20 340 0 340 m 20 510 l 998 510 q 1020 574 1020 510 q 998 638 1020 638 l 20 638 q 0 574 0 638 q 20 510 0 510 m 20 170 l 318 170 q 340 234 340 170 q 318 298 340 298 l 20 298 q 0 234 0 298 q 20 170 0 170 m 20 0 l 1168 0 q 1190 64 1190 0 q 1168 128 1190 128 l 20 128 q 0 64 0 128 q 20 0 0 0 z "},"f":{"ha":1360,"x_min":0,"x_max":1190,"o":"m 20 850 l 318 850 q 340 914 340 850 q 318 977 340 977 l 20 977 q 0 914 0 977 q 20 850 0 850 m 20 1020 l 1168 1020 q 1190 1084 1190 1020 q 1168 1147 1190 1147 l 20 1147 q 0 1084 0 1147 q 20 1020 0 1020 m 20 680 l 318 680 q 340 744 340 680 q 318 808 340 808 l 20 808 q 0 744 0 808 q 20 680 0 680 m 20 340 l 318 340 q 340 404 340 340 q 318 468 340 468 l 20 468 q 0 404 0 468 q 20 340 0 340 m 20 510 l 998 510 q 1020 574 1020 510 q 998 638 1020 638 l 20 638 q 0 574 0 638 q 20 510 0 510 m 20 170 l 318 170 q 340 234 340 170 q 318 298 340 298 l 20 298 q 0 234 0 298 q 20 170 0 170 m 20 0 l 318 0 q 340 64 340 0 q 318 128 340 128 l 20 128 q 0 64 0 128 q 20 0 0 0 z "},"g":{"ha":1360,"x_min":0,"x_max":1190,"o":"m 190 850 l 488 850 q 510 914 510 850 q 488 977 510 977 l 190 977 q 170 914 170 977 q 190 850 170 850 m 700 510 l 1168 510 q 1190 574 1190 510 q 1168 638 1190 638 l 700 638 q 680 574 680 638 q 700 510 680 510 m 360 1020 l 1168 1020 q 1190 1084 1190 1020 q 1168 1147 1190 1147 l 360 1147 q 340 1084 340 1147 q 360 1020 340 1020 m 20 680 l 318 680 q 340 744 340 680 q 318 808 340 808 l 20 808 q 0 744 0 808 q 20 680 0 680 m 20 340 l 318 340 q 340 404 340 340 q 318 468 340 468 l 20 468 q 0 404 0 468 q 20 340 0 340 m 20 510 l 318 510 q 340 574 340 510 q 318 638 340 638 l 20 638 q 0 574 0 638 q 20 510 0 510 m 190 170 l 488 170 q 510 234 510 170 q 488 298 510 298 l 190 298 q 170 234 170 298 q 190 170 170 170 m 870 170 l 1168 170 q 1190 234 1190 170 q 1168 298 1190 298 l 870 298 q 850 234 850 298 q 870 170 850 170 m 360 0 l 1168 0 q 1190 64 1190 0 q 1168 128 1190 128 l 360 128 q 340 64 340 128 q 360 0 340 0 m 870 340 l 1168 340 q 1190 404 1190 340 q 1168 468 1190 468 l 870 468 q 850 404 850 468 q 870 340 850 340 z "},"h":{"ha":1360,"x_min":0,"x_max":1190,"o":"m 20 850 l 318 850 q 340 914 340 850 q 318 977 340 977 l 20 977 q 0 914 0 977 q 20 850 0 850 m 20 680 l 318 680 q 340 744 340 680 q 318 808 340 808 l 20 808 q 0 744 0 808 q 20 680 0 680 m 20 340 l 318 340 q 340 404 340 340 q 318 468 340 468 l 20 468 q 0 404 0 468 q 20 340 0 340 m 20 510 l 1168 510 q 1190 574 1190 510 q 1168 638 1190 638 l 20 638 q 0 574 0 638 q 20 510 0 510 m 20 170 l 318 170 q 340 234 340 170 q 318 298 340 298 l 20 298 q 0 234 0 298 q 20 170 0 170 m 20 1020 l 318 1020 q 340 1084 340 1020 q 318 1147 340 1147 l 20 1147 q 0 1084 0 1147 q 20 1020 0 1020 m 20 0 l 318 0 q 340 64 340 0 q 318 128 340 128 l 20 128 q 0 64 0 128 q 20 0 0 0 m 870 850 l 1168 850 q 1190 914 1190 850 q 1168 977 1190 977 l 870 977 q 850 914 850 977 q 870 850 850 850 m 870 680 l 1168 680 q 1190 744 1190 680 q 1168 808 1190 808 l 870 808 q 850 744 850 808 q 870 680 850 680 m 870 340 l 1168 340 q 1190 404 1190 340 q 1168 468 1190 468 l 870 468 q 850 404 850 468 q 870 340 850 340 m 870 170 l 1168 170 q 1190 234 1190 170 q 1168 298 1190 298 l 870 298 q 850 234 850 298 q 870 170 850 170 m 870 1020 l 1168 1020 q 1190 1084 1190 1020 q 1168 1147 1190 1147 l 870 1147 q 850 1084 850 1147 q 870 1020 850 1020 m 870 0 l 1168 0 q 1190 64 1190 0 q 1168 128 1190 128 l 870 128 q 850 64 850 128 q 870 0 850 0 z "},"i":{"ha":1360,"x_min":170,"x_max":1190,"o":"m 190 1020 l 1168 1020 q 1190 1084 1190 1020 q 1168 1147 1190 1147 l 190 1147 q 170 1084 170 1147 q 190 1020 170 1020 m 530 850 l 828 850 q 850 914 850 850 q 828 977 850 977 l 530 977 q 510 914 510 977 q 530 850 510 850 m 530 680 l 828 680 q 850 744 850 680 q 828 808 850 808 l 530 808 q 510 744 510 808 q 530 680 510 680 m 530 510 l 828 510 q 850 574 850 510 q 828 638 850 638 l 530 638 q 510 574 510 638 q 530 510 510 510 m 530 340 l 828 340 q 850 404 850 340 q 828 468 850 468 l 530 468 q 510 404 510 468 q 530 340 510 340 m 530 170 l 828 170 q 850 234 850 170 q 828 298 850 298 l 530 298 q 510 234 510 298 q 530 170 510 170 m 190 0 l 1168 0 q 1190 64 1190 0 q 1168 128 1190 128 l 190 128 q 170 64 170 128 q 190 0 170 0 z "},"j":{"ha":1360,"x_min":0,"x_max":1190,"o":"m 870 680 l 1168 680 q 1190 744 1190 680 q 1168 808 1190 808 l 870 808 q 850 744 850 808 q 870 680 850 680 m 20 340 l 318 340 q 340 404 340 340 q 318 468 340 468 l 20 468 q 0 404 0 468 q 20 340 0 340 m 870 510 l 1168 510 q 1190 574 1190 510 q 1168 638 1190 638 l 870 638 q 850 574 850 638 q 870 510 850 510 m 20 170 l 318 170 q 340 234 340 170 q 318 298 340 298 l 20 298 q 0 234 0 298 q 20 170 0 170 m 870 170 l 1168 170 q 1190 234 1190 170 q 1168 298 1190 298 l 870 298 q 850 234 850 298 q 870 170 850 170 m 190 0 l 998 0 q 1020 64 1020 0 q 998 128 1020 128 l 190 128 q 170 64 170 128 q 190 0 170 0 m 870 340 l 1168 340 q 1190 404 1190 340 q 1168 468 1190 468 l 870 468 q 850 404 850 468 q 870 340 850 340 m 870 1020 l 1168 1020 q 1190 1084 1190 1020 q 1168 1147 1190 1147 l 870 1147 q 850 1084 850 1147 q 870 1020 850 1020 m 870 850 l 1168 850 q 1190 914 1190 850 q 1168 977 1190 977 l 870 977 q 850 914 850 977 q 870 850 850 850 z "},"k":{"ha":1360,"x_min":0,"x_max":1190,"o":"m 20 850 l 318 850 q 340 914 340 850 q 318 977 340 977 l 20 977 q 0 914 0 977 q 20 850 0 850 m 20 680 l 318 680 q 340 744 340 680 q 318 808 340 808 l 20 808 q 0 744 0 808 q 20 680 0 680 m 20 340 l 828 340 q 850 404 850 340 q 828 468 850 468 l 20 468 q 0 404 0 468 q 20 340 0 340 m 20 510 l 658 510 q 680 574 680 510 q 658 638 680 638 l 20 638 q 0 574 0 638 q 20 510 0 510 m 20 170 l 318 170 q 340 234 340 170 q 318 298 340 298 l 20 298 q 0 234 0 298 q 20 170 0 170 m 20 0 l 318 0 q 340 64 340 0 q 318 128 340 128 l 20 128 q 0 64 0 128 q 20 0 0 0 m 20 1020 l 318 1020 q 340 1084 340 1020 q 318 1147 340 1147 l 20 1147 q 0 1084 0 1147 q 20 1020 0 1020 m 700 850 l 998 850 q 1020 914 1020 850 q 998 977 1020 977 l 700 977 q 680 914 680 977 q 700 850 680 850 m 530 680 l 828 680 q 850 744 850 680 q 828 808 850 808 l 530 808 q 510 744 510 808 q 530 680 510 680 m 870 1020 l 1168 1020 q 1190 1084 1190 1020 q 1168 1147 1190 1147 l 870 1147 q 850 1084 850 1147 q 870 1020 850 1020 m 530 170 l 998 170 q 1020 234 1020 170 q 998 298 1020 298 l 530 298 q 510 234 510 298 q 530 170 510 170 m 700 0 l 1168 0 q 1190 64 1190 0 q 1168 128 1190 128 l 700 128 q 680 64 680 128 q 700 0 680 0 z "},"l":{"ha":1360,"x_min":0,"x_max":1190,"o":"m 20 850 l 318 850 q 340 914 340 850 q 318 977 340 977 l 20 977 q 0 914 0 977 q 20 850 0 850 m 20 1020 l 318 1020 q 340 1084 340 1020 q 318 1147 340 1147 l 20 1147 q 0 1084 0 1147 q 20 1020 0 1020 m 20 680 l 318 680 q 340 744 340 680 q 318 808 340 808 l 20 808 q 0 744 0 808 q 20 680 0 680 m 20 340 l 318 340 q 340 404 340 340 q 318 468 340 468 l 20 468 q 0 404 0 468 q 20 340 0 340 m 20 510 l 318 510 q 340 574 340 510 q 318 638 340 638 l 20 638 q 0 574 0 638 q 20 510 0 510 m 20 170 l 318 170 q 340 234 340 170 q 318 298 340 298 l 20 298 q 0 234 0 298 q 20 170 0 170 m 20 0 l 1168 0 q 1190 64 1190 0 q 1168 128 1190 128 l 20 128 q 0 64 0 128 q 20 0 0 0 z "},"m":{"ha":1360,"x_min":0,"x_max":1190,"o":"m 20 850 l 488 850 q 510 914 510 850 q 488 977 510 977 l 20 977 q 0 914 0 977 q 20 850 0 850 m 20 680 l 1168 680 q 1190 744 1190 680 q 1168 808 1190 808 l 20 808 q 0 744 0 808 q 20 680 0 680 m 20 340 l 318 340 q 340 404 340 340 q 318 468 340 468 l 20 468 q 0 404 0 468 q 20 340 0 340 m 20 170 l 318 170 q 340 234 340 170 q 318 298 340 298 l 20 298 q 0 234 0 298 q 20 170 0 170 m 20 1020 l 318 1020 q 340 1084 340 1020 q 318 1147 340 1147 l 20 1147 q 0 1084 0 1147 q 20 1020 0 1020 m 20 0 l 318 0 q 340 64 340 0 q 318 128 340 128 l 20 128 q 0 64 0 128 q 20 0 0 0 m 700 850 l 1168 850 q 1190 914 1190 850 q 1168 977 1190 977 l 700 977 q 680 914 680 977 q 700 850 680 850 m 870 340 l 1168 340 q 1190 404 1190 340 q 1168 468 1190 468 l 870 468 q 850 404 850 468 q 870 340 850 340 m 870 170 l 1168 170 q 1190 234 1190 170 q 1168 298 1190 298 l 870 298 q 850 234 850 298 q 870 170 850 170 m 870 1020 l 1168 1020 q 1190 1084 1190 1020 q 1168 1147 1190 1147 l 870 1147 q 850 1084 850 1147 q 870 1020 850 1020 m 870 0 l 1168 0 q 1190 64 1190 0 q 1168 128 1190 128 l 870 128 q 850 64 850 128 q 870 0 850 0 m 530 340 l 658 340 q 680 404 680 340 q 658 468 680 468 l 530 468 q 510 404 510 468 q 530 340 510 340 m 20 510 l 1168 510 q 1190 574 1190 510 q 1168 638 1190 638 l 20 638 q 0 574 0 638 q 20 510 0 510 z "},"n":{"ha":1360,"x_min":0,"x_max":1190,"o":"m 20 850 l 488 850 q 510 914 510 850 q 488 977 510 977 l 20 977 q 0 914 0 977 q 20 850 0 850 m 20 680 l 658 680 q 680 744 680 680 q 658 808 680 808 l 20 808 q 0 744 0 808 q 20 680 0 680 m 20 340 l 318 340 q 340 404 340 340 q 318 468 340 468 l 20 468 q 0 404 0 468 q 20 340 0 340 m 20 170 l 318 170 q 340 234 340 170 q 318 298 340 298 l 20 298 q 0 234 0 298 q 20 170 0 170 m 20 1020 l 318 1020 q 340 1084 340 1020 q 318 1147 340 1147 l 20 1147 q 0 1084 0 1147 q 20 1020 0 1020 m 20 0 l 318 0 q 340 64 340 0 q 318 128 340 128 l 20 128 q 0 64 0 128 q 20 0 0 0 m 870 850 l 1168 850 q 1190 914 1190 850 q 1168 977 1190 977 l 870 977 q 850 914 850 977 q 870 850 850 850 m 530 340 l 1168 340 q 1190 404 1190 340 q 1168 468 1190 468 l 530 468 q 510 404 510 468 q 530 340 510 340 m 700 170 l 1168 170 q 1190 234 1190 170 q 1168 298 1190 298 l 700 298 q 680 234 680 298 q 700 170 680 170 m 870 1020 l 1168 1020 q 1190 1084 1190 1020 q 1168 1147 1190 1147 l 870 1147 q 850 1084 850 1147 q 870 1020 850 1020 m 870 0 l 1168 0 q 1190 64 1190 0 q 1168 128 1190 128 l 870 128 q 850 64 850 128 q 870 0 850 0 m 20 510 l 1168 510 q 1190 574 1190 510 q 1168 638 1190 638 l 20 638 q 0 574 0 638 q 20 510 0 510 m 870 680 l 1168 680 q 1190 744 1190 680 q 1168 808 1190 808 l 870 808 q 850 744 850 808 q 870 680 850 680 z "},"o":{"ha":1360,"x_min":0,"x_max":1190,"o":"m 20 850 l 318 850 q 340 914 340 850 q 318 977 340 977 l 20 977 q 0 914 0 977 q 20 850 0 850 m 870 850 l 1168 850 q 1190 914 1190 850 q 1168 977 1190 977 l 870 977 q 850 914 850 977 q 870 850 850 850 m 190 1020 l 998 1020 q 1020 1084 1020 1020 q 998 1147 1020 1147 l 190 1147 q 170 1084 170 1147 q 190 1020 170 1020 m 20 680 l 318 680 q 340 744 340 680 q 318 808 340 808 l 20 808 q 0 744 0 808 q 20 680 0 680 m 870 680 l 1168 680 q 1190 744 1190 680 q 1168 808 1190 808 l 870 808 q 850 744 850 808 q 870 680 850 680 m 20 340 l 318 340 q 340 404 340 340 q 318 468 340 468 l 20 468 q 0 404 0 468 q 20 340 0 340 m 870 340 l 1168 340 q 1190 404 1190 340 q 1168 468 1190 468 l 870 468 q 850 404 850 468 q 870 340 850 340 m 20 510 l 318 510 q 340 574 340 510 q 318 638 340 638 l 20 638 q 0 574 0 638 q 20 510 0 510 m 20 170 l 318 170 q 340 234 340 170 q 318 298 340 298 l 20 298 q 0 234 0 298 q 20 170 0 170 m 870 170 l 1168 170 q 1190 234 1190 170 q 1168 298 1190 298 l 870 298 q 850 234 850 298 q 870 170 850 170 m 190 0 l 998 0 q 1020 64 1020 0 q 998 128 1020 128 l 190 128 q 170 64 170 128 q 190 0 170 0 m 870 510 l 1168 510 q 1190 574 1190 510 q 1168 638 1190 638 l 870 638 q 850 574 850 638 q 870 510 850 510 z "},"p":{"ha":1360,"x_min":0,"x_max":1190,"o":"m 20 850 l 318 850 q 340 914 340 850 q 318 977 340 977 l 20 977 q 0 914 0 977 q 20 850 0 850 m 870 850 l 1168 850 q 1190 914 1190 850 q 1168 977 1190 977 l 870 977 q 850 914 850 977 q 870 850 850 850 m 20 1020 l 998 1020 q 1020 1084 1020 1020 q 998 1147 1020 1147 l 20 1147 q 0 1084 0 1147 q 20 1020 0 1020 m 20 680 l 318 680 q 340 744 340 680 q 318 808 340 808 l 20 808 q 0 744 0 808 q 20 680 0 680 m 870 680 l 1168 680 q 1190 744 1190 680 q 1168 808 1190 808 l 870 808 q 850 744 850 808 q 870 680 850 680 m 20 340 l 998 340 q 1020 404 1020 340 q 998 468 1020 468 l 20 468 q 0 404 0 468 q 20 340 0 340 m 20 510 l 318 510 q 340 574 340 510 q 318 638 340 638 l 20 638 q 0 574 0 638 q 20 510 0 510 m 20 170 l 318 170 q 340 234 340 170 q 318 298 340 298 l 20 298 q 0 234 0 298 q 20 170 0 170 m 20 0 l 318 0 q 340 64 340 0 q 318 128 340 128 l 20 128 q 0 64 0 128 q 20 0 0 0 m 870 510 l 1168 510 q 1190 574 1190 510 q 1168 638 1190 638 l 870 638 q 850 574 850 638 q 870 510 850 510 z "},"q":{"ha":1360,"x_min":0,"x_max":1190,"o":"m 20 850 l 318 850 q 340 914 340 850 q 318 977 340 977 l 20 977 q 0 914 0 977 q 20 850 0 850 m 870 850 l 1168 850 q 1190 914 1190 850 q 1168 977 1190 977 l 870 977 q 850 914 850 977 q 870 850 850 850 m 190 1020 l 998 1020 q 1020 1084 1020 1020 q 998 1147 1020 1147 l 190 1147 q 170 1084 170 1147 q 190 1020 170 1020 m 20 680 l 318 680 q 340 744 340 680 q 318 808 340 808 l 20 808 q 0 744 0 808 q 20 680 0 680 m 870 680 l 1168 680 q 1190 744 1190 680 q 1168 808 1190 808 l 870 808 q 850 744 850 808 q 870 680 850 680 m 20 340 l 318 340 q 340 404 340 340 q 318 468 340 468 l 20 468 q 0 404 0 468 q 20 340 0 340 m 530 340 l 1168 340 q 1190 404 1190 340 q 1168 468 1190 468 l 530 468 q 510 404 510 468 q 530 340 510 340 m 20 510 l 318 510 q 340 574 340 510 q 318 638 340 638 l 20 638 q 0 574 0 638 q 20 510 0 510 m 20 170 l 318 170 q 340 234 340 170 q 318 298 340 298 l 20 298 q 0 234 0 298 q 20 170 0 170 m 700 170 l 998 170 q 1020 234 1020 170 q 998 298 1020 298 l 700 298 q 680 234 680 298 q 700 170 680 170 m 190 0 l 828 0 q 850 64 850 0 q 828 128 850 128 l 190 128 q 170 64 170 128 q 190 0 170 0 m 870 510 l 1168 510 q 1190 574 1190 510 q 1168 638 1190 638 l 870 638 q 850 574 850 638 q 870 510 850 510 m 1040 0 l 1168 0 q 1190 64 1190 0 q 1168 128 1190 128 l 1040 128 q 1020 64 1020 128 q 1040 0 1020 0 z "},"r":{"ha":1360,"x_min":0,"x_max":1190,"o":"m 20 850 l 318 850 q 340 914 340 850 q 318 977 340 977 l 20 977 q 0 914 0 977 q 20 850 0 850 m 870 850 l 1168 850 q 1190 914 1190 850 q 1168 977 1190 977 l 870 977 q 850 914 850 977 q 870 850 850 850 m 20 1020 l 998 1020 q 1020 1084 1020 1020 q 998 1147 1020 1147 l 20 1147 q 0 1084 0 1147 q 20 1020 0 1020 m 20 680 l 318 680 q 340 744 340 680 q 318 808 340 808 l 20 808 q 0 744 0 808 q 20 680 0 680 m 870 680 l 1168 680 q 1190 744 1190 680 q 1168 808 1190 808 l 870 808 q 850 744 850 808 q 870 680 850 680 m 20 340 l 828 340 q 850 404 850 340 q 828 468 850 468 l 20 468 q 0 404 0 468 q 20 340 0 340 m 20 510 l 318 510 q 340 574 340 510 q 318 638 340 638 l 20 638 q 0 574 0 638 q 20 510 0 510 m 20 170 l 318 170 q 340 234 340 170 q 318 298 340 298 l 20 298 q 0 234 0 298 q 20 170 0 170 m 530 170 l 998 170 q 1020 234 1020 170 q 998 298 1020 298 l 530 298 q 510 234 510 298 q 530 170 510 170 m 20 0 l 318 0 q 340 64 340 0 q 318 128 340 128 l 20 128 q 0 64 0 128 q 20 0 0 0 m 700 510 l 1168 510 q 1190 574 1190 510 q 1168 638 1190 638 l 700 638 q 680 574 680 638 q 700 510 680 510 m 700 0 l 1168 0 q 1190 64 1190 0 q 1168 128 1190 128 l 700 128 q 680 64 680 128 q 700 0 680 0 z "},"s":{"ha":1360,"x_min":0,"x_max":1190,"o":"m 20 850 l 318 850 q 340 914 340 850 q 318 977 340 977 l 20 977 q 0 914 0 977 q 20 850 0 850 m 700 850 l 998 850 q 1020 914 1020 850 q 998 977 1020 977 l 700 977 q 680 914 680 977 q 700 850 680 850 m 190 1020 l 828 1020 q 850 1084 850 1020 q 828 1147 850 1147 l 190 1147 q 170 1084 170 1147 q 190 1020 170 1020 m 20 680 l 318 680 q 340 744 340 680 q 318 808 340 808 l 20 808 q 0 744 0 808 q 20 680 0 680 m 870 340 l 1168 340 q 1190 404 1190 340 q 1168 468 1190 468 l 870 468 q 850 404 850 468 q 870 340 850 340 m 190 510 l 998 510 q 1020 574 1020 510 q 998 638 1020 638 l 190 638 q 170 574 170 638 q 190 510 170 510 m 20 170 l 318 170 q 340 234 340 170 q 318 298 340 298 l 20 298 q 0 234 0 298 q 20 170 0 170 m 870 170 l 1168 170 q 1190 234 1190 170 q 1168 298 1190 298 l 870 298 q 850 234 850 298 q 870 170 850 170 m 190 0 l 998 0 q 1020 64 1020 0 q 998 128 1020 128 l 190 128 q 170 64 170 128 q 190 0 170 0 z "},"t":{"ha":1360,"x_min":170,"x_max":1190,"o":"m 530 850 l 828 850 q 850 914 850 850 q 828 977 850 977 l 530 977 q 510 914 510 977 q 530 850 510 850 m 190 1020 l 1168 1020 q 1190 1084 1190 1020 q 1168 1147 1190 1147 l 190 1147 q 170 1084 170 1147 q 190 1020 170 1020 m 530 680 l 828 680 q 850 744 850 680 q 828 808 850 808 l 530 808 q 510 744 510 808 q 530 680 510 680 m 530 170 l 828 170 q 850 234 850 170 q 828 298 850 298 l 530 298 q 510 234 510 298 q 530 170 510 170 m 530 0 l 828 0 q 850 64 850 0 q 828 128 850 128 l 530 128 q 510 64 510 128 q 530 0 510 0 m 530 510 l 828 510 q 850 574 850 510 q 828 638 850 638 l 530 638 q 510 574 510 638 q 530 510 510 510 m 530 340 l 828 340 q 850 404 850 340 q 828 468 850 468 l 530 468 q 510 404 510 468 q 530 340 510 340 z "},"u":{"ha":1360,"x_min":0,"x_max":1190,"o":"m 20 1020 l 318 1020 q 340 1084 340 1020 q 318 1147 340 1147 l 20 1147 q 0 1084 0 1147 q 20 1020 0 1020 m 190 0 l 998 0 q 1020 64 1020 0 q 998 128 1020 128 l 190 128 q 170 64 170 128 q 190 0 170 0 m 20 850 l 318 850 q 340 914 340 850 q 318 977 340 977 l 20 977 q 0 914 0 977 q 20 850 0 850 m 20 340 l 318 340 q 340 404 340 340 q 318 468 340 468 l 20 468 q 0 404 0 468 q 20 340 0 340 m 20 170 l 318 170 q 340 234 340 170 q 318 298 340 298 l 20 298 q 0 234 0 298 q 20 170 0 170 m 20 680 l 318 680 q 340 744 340 680 q 318 808 340 808 l 20 808 q 0 744 0 808 q 20 680 0 680 m 20 510 l 318 510 q 340 574 340 510 q 318 638 340 638 l 20 638 q 0 574 0 638 q 20 510 0 510 m 870 1020 l 1168 1020 q 1190 1084 1190 1020 q 1168 1147 1190 1147 l 870 1147 q 850 1084 850 1147 q 870 1020 850 1020 m 870 850 l 1168 850 q 1190 914 1190 850 q 1168 977 1190 977 l 870 977 q 850 914 850 977 q 870 850 850 850 m 870 340 l 1168 340 q 1190 404 1190 340 q 1168 468 1190 468 l 870 468 q 850 404 850 468 q 870 340 850 340 m 870 170 l 1168 170 q 1190 234 1190 170 q 1168 298 1190 298 l 870 298 q 850 234 850 298 q 870 170 850 170 m 870 680 l 1168 680 q 1190 744 1190 680 q 1168 808 1190 808 l 870 808 q 850 744 850 808 q 870 680 850 680 m 870 510 l 1168 510 q 1190 574 1190 510 q 1168 638 1190 638 l 870 638 q 850 574 850 638 q 870 510 850 510 z "},"v":{"ha":1360,"x_min":0,"x_max":1190,"o":"m 20 1020 l 318 1020 q 340 1084 340 1020 q 318 1147 340 1147 l 20 1147 q 0 1084 0 1147 q 20 1020 0 1020 m 530 0 l 658 0 q 680 64 680 0 q 658 128 680 128 l 530 128 q 510 64 510 128 q 530 0 510 0 m 20 850 l 318 850 q 340 914 340 850 q 318 977 340 977 l 20 977 q 0 914 0 977 q 20 850 0 850 m 20 680 l 318 680 q 340 744 340 680 q 318 808 340 808 l 20 808 q 0 744 0 808 q 20 680 0 680 m 20 510 l 488 510 q 510 574 510 510 q 488 638 510 638 l 20 638 q 0 574 0 638 q 20 510 0 510 m 870 1020 l 1168 1020 q 1190 1084 1190 1020 q 1168 1147 1190 1147 l 870 1147 q 850 1084 850 1147 q 870 1020 850 1020 m 870 850 l 1168 850 q 1190 914 1190 850 q 1168 977 1190 977 l 870 977 q 850 914 850 977 q 870 850 850 850 m 190 340 l 998 340 q 1020 404 1020 340 q 998 468 1020 468 l 190 468 q 170 404 170 468 q 190 340 170 340 m 360 170 l 828 170 q 850 234 850 170 q 828 298 850 298 l 360 298 q 340 234 340 298 q 360 170 340 170 m 870 680 l 1168 680 q 1190 744 1190 680 q 1168 808 1190 808 l 870 808 q 850 744 850 808 q 870 680 850 680 m 700 510 l 1168 510 q 1190 574 1190 510 q 1168 638 1190 638 l 700 638 q 680 574 680 638 q 700 510 680 510 z "},"w":{"ha":1360,"x_min":0,"x_max":1190,"o":"m 20 1020 l 318 1020 q 340 1084 340 1020 q 318 1147 340 1147 l 20 1147 q 0 1084 0 1147 q 20 1020 0 1020 m 530 510 l 658 510 q 680 574 680 510 q 658 638 680 638 l 530 638 q 510 574 510 638 q 530 510 510 510 m 20 850 l 318 850 q 340 914 340 850 q 318 977 340 977 l 20 977 q 0 914 0 977 q 20 850 0 850 m 20 680 l 318 680 q 340 744 340 680 q 318 808 340 808 l 20 808 q 0 744 0 808 q 20 680 0 680 m 20 510 l 318 510 q 340 574 340 510 q 318 638 340 638 l 20 638 q 0 574 0 638 q 20 510 0 510 m 870 1020 l 1168 1020 q 1190 1084 1190 1020 q 1168 1147 1190 1147 l 870 1147 q 850 1084 850 1147 q 870 1020 850 1020 m 870 850 l 1168 850 q 1190 914 1190 850 q 1168 977 1190 977 l 870 977 q 850 914 850 977 q 870 850 850 850 m 20 340 l 1168 340 q 1190 404 1190 340 q 1168 468 1190 468 l 20 468 q 0 404 0 468 q 20 340 0 340 m 20 170 l 488 170 q 510 234 510 170 q 488 298 510 298 l 20 298 q 0 234 0 298 q 20 170 0 170 m 870 680 l 1168 680 q 1190 744 1190 680 q 1168 808 1190 808 l 870 808 q 850 744 850 808 q 870 680 850 680 m 870 510 l 1168 510 q 1190 574 1190 510 q 1168 638 1190 638 l 870 638 q 850 574 850 638 q 870 510 850 510 m 700 170 l 1168 170 q 1190 234 1190 170 q 1168 298 1190 298 l 700 298 q 680 234 680 298 q 700 170 680 170 m 20 0 l 318 0 q 340 64 340 0 q 318 128 340 128 l 20 128 q 0 64 0 128 q 20 0 0 0 m 870 0 l 1168 0 q 1190 64 1190 0 q 1168 128 1190 128 l 870 128 q 850 64 850 128 q 870 0 850 0 z "},"x":{"ha":1360,"x_min":0,"x_max":1190,"o":"m 20 1020 l 318 1020 q 340 1084 340 1020 q 318 1147 340 1147 l 20 1147 q 0 1084 0 1147 q 20 1020 0 1020 m 20 850 l 488 850 q 510 914 510 850 q 488 977 510 977 l 20 977 q 0 914 0 977 q 20 850 0 850 m 190 680 l 998 680 q 1020 744 1020 680 q 998 808 1020 808 l 190 808 q 170 744 170 808 q 190 680 170 680 m 360 510 l 828 510 q 850 574 850 510 q 828 638 850 638 l 360 638 q 340 574 340 638 q 360 510 340 510 m 870 1020 l 1168 1020 q 1190 1084 1190 1020 q 1168 1147 1190 1147 l 870 1147 q 850 1084 850 1147 q 870 1020 850 1020 m 700 850 l 1168 850 q 1190 914 1190 850 q 1168 977 1190 977 l 700 977 q 680 914 680 977 q 700 850 680 850 m 190 340 l 998 340 q 1020 404 1020 340 q 998 468 1020 468 l 190 468 q 170 404 170 468 q 190 340 170 340 m 20 170 l 488 170 q 510 234 510 170 q 488 298 510 298 l 20 298 q 0 234 0 298 q 20 170 0 170 m 700 170 l 1168 170 q 1190 234 1190 170 q 1168 298 1190 298 l 700 298 q 680 234 680 298 q 700 170 680 170 m 20 0 l 318 0 q 340 64 340 0 q 318 128 340 128 l 20 128 q 0 64 0 128 q 20 0 0 0 m 870 0 l 1168 0 q 1190 64 1190 0 q 1168 128 1190 128 l 870 128 q 850 64 850 128 q 870 0 850 0 z "},"y":{"ha":1360,"x_min":170,"x_max":1190,"o":"m 190 1020 l 488 1020 q 510 1084 510 1020 q 488 1147 510 1147 l 190 1147 q 170 1084 170 1147 q 190 1020 170 1020 m 190 850 l 488 850 q 510 914 510 850 q 488 977 510 977 l 190 977 q 170 914 170 977 q 190 850 170 850 m 190 680 l 488 680 q 510 744 510 680 q 488 808 510 808 l 190 808 q 170 744 170 808 q 190 680 170 680 m 360 510 l 998 510 q 1020 574 1020 510 q 998 638 1020 638 l 360 638 q 340 574 340 638 q 360 510 340 510 m 870 1020 l 1168 1020 q 1190 1084 1190 1020 q 1168 1147 1190 1147 l 870 1147 q 850 1084 850 1147 q 870 1020 850 1020 m 870 850 l 1168 850 q 1190 914 1190 850 q 1168 977 1190 977 l 870 977 q 850 914 850 977 q 870 850 850 850 m 530 340 l 828 340 q 850 404 850 340 q 828 468 850 468 l 530 468 q 510 404 510 468 q 530 340 510 340 m 530 170 l 828 170 q 850 234 850 170 q 828 298 850 298 l 530 298 q 510 234 510 298 q 530 170 510 170 m 530 0 l 828 0 q 850 64 850 0 q 828 128 850 128 l 530 128 q 510 64 510 128 q 530 0 510 0 m 870 680 l 1168 680 q 1190 744 1190 680 q 1168 808 1190 808 l 870 808 q 850 744 850 808 q 870 680 850 680 z "},"z":{"ha":1360,"x_min":0,"x_max":1190,"o":"m 20 1020 l 1168 1020 q 1190 1084 1190 1020 q 1168 1147 1190 1147 l 20 1147 q 0 1084 0 1147 q 20 1020 0 1020 m 360 510 l 828 510 q 850 574 850 510 q 828 638 850 638 l 360 638 q 340 574 340 638 q 360 510 340 510 m 700 850 l 1168 850 q 1190 914 1190 850 q 1168 977 1190 977 l 700 977 q 680 914 680 977 q 700 850 680 850 m 190 340 l 658 340 q 680 404 680 340 q 658 468 680 468 l 190 468 q 170 404 170 468 q 190 340 170 340 m 20 170 l 488 170 q 510 234 510 170 q 488 298 510 298 l 20 298 q 0 234 0 298 q 20 170 0 170 m 20 0 l 1168 0 q 1190 64 1190 0 q 1168 128 1190 128 l 20 128 q 0 64 0 128 q 20 0 0 0 m 530 680 l 998 680 q 1020 744 1020 680 q 998 808 1020 808 l 530 808 q 510 744 510 808 q 530 680 510 680 z "},"{":{"ha":1360,"x_min":170,"x_max":850,"o":"m 530 1020 l 828 1020 q 850 1084 850 1020 q 828 1147 850 1147 l 530 1147 q 510 1084 510 1147 q 530 1020 510 1020 m 360 850 l 658 850 q 680 914 680 850 q 658 977 680 977 l 360 977 q 340 914 340 977 q 360 850 340 850 m 360 680 l 658 680 q 680 744 680 680 q 658 808 680 808 l 360 808 q 340 744 340 808 q 360 680 340 680 m 360 340 l 658 340 q 680 404 680 340 q 658 468 680 468 l 360 468 q 340 404 340 468 q 360 340 340 340 m 360 170 l 658 170 q 680 234 680 170 q 658 298 680 298 l 360 298 q 340 234 340 298 q 360 170 340 170 m 530 0 l 828 0 q 850 64 850 0 q 828 128 850 128 l 530 128 q 510 64 510 128 q 530 0 510 0 m 190 510 l 488 510 q 510 574 510 510 q 488 638 510 638 l 190 638 q 170 574 170 638 q 190 510 170 510 z "},"|":{"ha":1360,"x_min":510,"x_max":680,"o":"m 658 1020 l 530 1020 q 510 1084 510 1020 q 530 1147 510 1147 l 658 1147 q 680 1084 680 1147 q 658 1020 680 1020 m 658 510 l 530 510 q 510 574 510 510 q 530 638 510 638 l 658 638 q 680 574 680 638 q 658 510 680 510 m 658 850 l 530 850 q 510 914 510 850 q 530 977 510 977 l 658 977 q 680 914 680 977 q 658 850 680 850 m 658 340 l 530 340 q 510 404 510 340 q 530 468 510 468 l 658 468 q 680 404 680 468 q 658 340 680 340 m 658 170 l 530 170 q 510 234 510 170 q 530 298 510 298 l 658 298 q 680 234 680 298 q 658 170 680 170 m 658 0 l 530 0 q 510 64 510 0 q 530 128 510 128 l 658 128 q 680 64 680 128 q 658 0 680 0 m 658 680 l 530 680 q 510 744 510 680 q 530 808 510 808 l 658 808 q 680 744 680 808 q 658 680 680 680 z "},"}":{"ha":1360,"x_min":340,"x_max":1020,"o":"m 360 1020 l 658 1020 q 680 1084 680 1020 q 658 1147 680 1147 l 360 1147 q 340 1084 340 1147 q 360 1020 340 1020 m 530 850 l 828 850 q 850 914 850 850 q 828 977 850 977 l 530 977 q 510 914 510 977 q 530 850 510 850 m 530 680 l 828 680 q 850 744 850 680 q 828 808 850 808 l 530 808 q 510 744 510 808 q 530 680 510 680 m 530 340 l 828 340 q 850 404 850 340 q 828 468 850 468 l 530 468 q 510 404 510 468 q 530 340 510 340 m 530 170 l 828 170 q 850 234 850 170 q 828 298 850 298 l 530 298 q 510 234 510 298 q 530 170 510 170 m 360 0 l 658 0 q 680 64 680 0 q 658 128 680 128 l 360 128 q 340 64 340 128 q 360 0 340 0 m 700 510 l 998 510 q 1020 574 1020 510 q 998 638 1020 638 l 700 638 q 680 574 680 638 q 700 510 680 510 z "},"~":{"ha":1360,"x_min":170,"x_max":1020,"o":"m 998 1020 l 870 1020 q 850 1084 850 1020 q 870 1147 850 1147 l 998 1147 q 1020 1084 1020 1147 q 998 1020 1020 1020 m 828 850 l 530 850 q 510 914 510 850 q 530 977 510 977 l 828 977 q 850 914 850 977 q 828 850 850 850 m 658 1020 l 360 1020 q 340 1084 340 1020 q 360 1147 340 1147 l 658 1147 q 680 1084 680 1147 q 658 1020 680 1020 m 318 850 l 190 850 q 170 914 170 850 q 190 977 170 977 l 318 977 q 340 914 340 977 q 318 850 340 850 z "},"":{"ha":1360,"x_min":0,"x_max":1190,"o":"m 20 850 l 148 850 q 170 914 170 850 q 148 977 170 977 l 20 977 q 0 914 0 977 q 20 850 0 850 m 1040 850 l 1168 850 q 1190 914 1190 850 q 1168 977 1190 977 l 1040 977 q 1020 914 1020 977 q 1040 850 1020 850 m 190 1020 l 998 1020 q 1020 1084 1020 1020 q 998 1147 1020 1147 l 190 1147 q 170 1084 170 1147 q 190 1020 170 1020 m 20 680 l 148 680 q 170 744 170 680 q 148 808 170 808 l 20 808 q 0 744 0 808 q 20 680 0 680 m 1040 680 l 1168 680 q 1190 744 1190 680 q 1168 808 1190 808 l 1040 808 q 1020 744 1020 808 q 1040 680 1020 680 m 20 340 l 148 340 q 170 404 170 340 q 148 468 170 468 l 20 468 q 0 404 0 468 q 20 340 0 340 m 1040 340 l 1168 340 q 1190 404 1190 340 q 1168 468 1190 468 l 1040 468 q 1020 404 1020 468 q 1040 340 1020 340 m 20 510 l 148 510 q 170 574 170 510 q 148 638 170 638 l 20 638 q 0 574 0 638 q 20 510 0 510 m 20 170 l 148 170 q 170 234 170 170 q 148 298 170 298 l 20 298 q 0 234 0 298 q 20 170 0 170 m 1040 170 l 1168 170 q 1190 234 1190 170 q 1168 298 1190 298 l 1040 298 q 1020 234 1020 298 q 1040 170 1020 170 m 190 0 l 998 0 q 1020 64 1020 0 q 998 128 1020 128 l 190 128 q 170 64 170 128 q 190 0 170 0 m 1040 510 l 1168 510 q 1190 574 1190 510 q 1168 638 1190 638 l 1040 638 q 1020 574 1020 638 q 1040 510 1020 510 m 360 680 l 828 680 q 850 744 850 680 q 828 808 850 808 l 360 808 q 340 744 340 808 q 360 680 340 680 m 360 340 l 828 340 q 850 404 850 340 q 828 468 850 468 l 360 468 q 340 404 340 468 q 360 340 340 340 m 360 510 l 488 510 q 510 574 510 510 q 488 638 510 638 l 360 638 q 340 574 340 638 q 360 510 340 510 z "},"":{"ha":1360,"x_min":0,"x_max":1190,"o":"m 20 850 l 148 850 q 170 914 170 850 q 148 977 170 977 l 20 977 q 0 914 0 977 q 20 850 0 850 m 1040 850 l 1168 850 q 1190 914 1190 850 q 1168 977 1190 977 l 1040 977 q 1020 914 1020 977 q 1040 850 1020 850 m 190 1020 l 998 1020 q 1020 1084 1020 1020 q 998 1147 1020 1147 l 190 1147 q 170 1084 170 1147 q 190 1020 170 1020 m 20 680 l 148 680 q 170 744 170 680 q 148 808 170 808 l 20 808 q 0 744 0 808 q 20 680 0 680 m 1040 680 l 1168 680 q 1190 744 1190 680 q 1168 808 1190 808 l 1040 808 q 1020 744 1020 808 q 1040 680 1020 680 m 20 340 l 148 340 q 170 404 170 340 q 148 468 170 468 l 20 468 q 0 404 0 468 q 20 340 0 340 m 1040 340 l 1168 340 q 1190 404 1190 340 q 1168 468 1190 468 l 1040 468 q 1020 404 1020 468 q 1040 340 1020 340 m 20 510 l 148 510 q 170 574 170 510 q 148 638 170 638 l 20 638 q 0 574 0 638 q 20 510 0 510 m 20 170 l 148 170 q 170 234 170 170 q 148 298 170 298 l 20 298 q 0 234 0 298 q 20 170 0 170 m 1040 170 l 1168 170 q 1190 234 1190 170 q 1168 298 1190 298 l 1040 298 q 1020 234 1020 298 q 1040 170 1020 170 m 190 0 l 998 0 q 1020 64 1020 0 q 998 128 1020 128 l 190 128 q 170 64 170 128 q 190 0 170 0 m 1040 510 l 1168 510 q 1190 574 1190 510 q 1168 638 1190 638 l 1040 638 q 1020 574 1020 638 q 1040 510 1020 510 m 360 680 l 828 680 q 850 744 850 680 q 828 808 850 808 l 360 808 q 340 744 340 808 q 360 680 340 680 m 360 340 l 488 340 q 510 404 510 340 q 488 468 510 468 l 360 468 q 340 404 340 468 q 360 340 340 340 m 360 510 l 488 510 q 510 574 510 510 q 488 638 510 638 l 360 638 q 340 574 340 638 q 360 510 340 510 z "},"":{"ha":1360,"x_min":0,"x_max":1190,"o":"m 20 1020 l 1168 1020 q 1190 1084 1190 1020 q 1168 1147 1190 1147 l 20 1147 q 0 1084 0 1147 q 20 1020 0 1020 m 20 0 l 1168 0 q 1190 64 1190 0 q 1168 128 1190 128 l 20 128 q 0 64 0 128 q 20 0 0 0 m 20 850 l 1168 850 q 1190 914 1190 850 q 1168 977 1190 977 l 20 977 q 0 914 0 977 q 20 850 0 850 m 20 680 l 1168 680 q 1190 744 1190 680 q 1168 808 1190 808 l 20 808 q 0 744 0 808 q 20 680 0 680 m 20 510 l 1168 510 q 1190 574 1190 510 q 1168 638 1190 638 l 20 638 q 0 574 0 638 q 20 510 0 510 m 20 340 l 1168 340 q 1190 404 1190 340 q 1168 468 1190 468 l 20 468 q 0 404 0 468 q 20 340 0 340 m 20 170 l 1168 170 q 1190 234 1190 170 q 1168 298 1190 298 l 20 298 q 0 234 0 298 q 20 170 0 170 z "},"":{"ha":1360,"x_min":0,"x_max":1190,"o":"m 360 850 l 828 850 q 850 914 850 850 q 828 977 850 977 l 360 977 q 340 914 340 977 q 360 850 340 850 m 530 1020 l 658 1020 q 680 1084 680 1020 q 658 1147 680 1147 l 530 1147 q 510 1084 510 1147 q 530 1020 510 1020 m 20 340 l 1168 340 q 1190 404 1190 340 q 1168 468 1190 468 l 20 468 q 0 404 0 468 q 20 340 0 340 m 20 170 l 1168 170 q 1190 234 1190 170 q 1168 298 1190 298 l 20 298 q 0 234 0 298 q 20 170 0 170 m 20 0 l 1168 0 q 1190 64 1190 0 q 1168 128 1190 128 l 20 128 q 0 64 0 128 q 20 0 0 0 m 360 680 l 828 680 q 850 744 850 680 q 828 808 850 808 l 360 808 q 340 744 340 808 q 360 680 340 680 m 360 510 l 828 510 q 850 574 850 510 q 828 638 850 638 l 360 638 q 340 574 340 638 q 360 510 340 510 z "},"":{"ha":1360,"x_min":170,"x_max":1020,"o":"m 190 850 l 658 850 q 680 914 680 850 q 658 977 680 977 l 190 977 q 170 914 170 977 q 190 850 170 850 m 190 680 l 998 680 q 1020 744 1020 680 q 998 808 1020 808 l 190 808 q 170 744 170 808 q 190 680 170 680 m 190 170 l 318 170 q 340 234 340 170 q 318 298 340 298 l 190 298 q 170 234 170 298 q 190 170 170 170 m 190 0 l 318 0 q 340 64 340 0 q 318 128 340 128 l 190 128 q 170 64 170 128 q 190 0 170 0 m 190 510 l 658 510 q 680 574 680 510 q 658 638 680 638 l 190 638 q 170 574 170 638 q 190 510 170 510 m 190 340 l 318 340 q 340 404 340 340 q 318 468 340 468 l 190 468 q 170 404 170 468 q 190 340 170 340 m 190 1020 l 318 1020 q 340 1084 340 1020 q 318 1147 340 1147 l 190 1147 q 170 1084 170 1147 q 190 1020 170 1020 z "},"":{"ha":1360,"x_min":0,"x_max":1190,"o":"m 20 850 l 148 850 q 170 914 170 850 q 148 977 170 977 l 20 977 q 0 914 0 977 q 20 850 0 850 m 1040 850 l 1168 850 q 1190 914 1190 850 q 1168 977 1190 977 l 1040 977 q 1020 914 1020 977 q 1040 850 1020 850 m 190 1020 l 998 1020 q 1020 1084 1020 1020 q 998 1147 1020 1147 l 190 1147 q 170 1084 170 1147 q 190 1020 170 1020 m 20 680 l 148 680 q 170 744 170 680 q 148 808 170 808 l 20 808 q 0 744 0 808 q 20 680 0 680 m 1040 680 l 1168 680 q 1190 744 1190 680 q 1168 808 1190 808 l 1040 808 q 1020 744 1020 808 q 1040 680 1020 680 m 20 340 l 148 340 q 170 404 170 340 q 148 468 170 468 l 20 468 q 0 404 0 468 q 20 340 0 340 m 1040 340 l 1168 340 q 1190 404 1190 340 q 1168 468 1190 468 l 1040 468 q 1020 404 1020 468 q 1040 340 1020 340 m 20 510 l 148 510 q 170 574 170 510 q 148 638 170 638 l 20 638 q 0 574 0 638 q 20 510 0 510 m 20 170 l 148 170 q 170 234 170 170 q 148 298 170 298 l 20 298 q 0 234 0 298 q 20 170 0 170 m 1040 170 l 1168 170 q 1190 234 1190 170 q 1168 298 1190 298 l 1040 298 q 1020 234 1020 298 q 1040 170 1020 170 m 190 0 l 998 0 q 1020 64 1020 0 q 998 128 1020 128 l 190 128 q 170 64 170 128 q 190 0 170 0 m 1040 510 l 1168 510 q 1190 574 1190 510 q 1168 638 1190 638 l 1040 638 q 1020 574 1020 638 q 1040 510 1020 510 m 360 680 l 828 680 q 850 744 850 680 q 828 808 850 808 l 360 808 q 340 744 340 808 q 360 680 340 680 m 360 340 l 828 340 q 850 404 850 340 q 828 468 850 468 l 360 468 q 340 404 340 468 q 360 340 340 340 m 700 510 l 828 510 q 850 574 850 510 q 828 638 850 638 l 700 638 q 680 574 680 638 q 700 510 680 510 m 360 510 l 488 510 q 510 574 510 510 q 488 638 510 638 l 360 638 q 340 574 340 638 q 360 510 340 510 m 360 170 l 488 170 q 510 234 510 170 q 488 298 510 298 l 360 298 q 340 234 340 298 q 360 170 340 170 z "},"":{"ha":1360,"x_min":510,"x_max":850,"o":"m 658 977 l 530 977 q 510 914 510 977 q 530 850 510 850 l 658 850 q 680 914 680 850 q 658 977 680 977 m 828 1147 l 700 1147 q 680 1084 680 1147 q 700 1020 680 1020 l 828 1020 q 850 1084 850 1020 q 828 1147 850 1147 m 828 638 l 530 638 q 510 574 510 638 q 530 510 510 510 l 828 510 q 850 574 850 510 q 828 638 850 638 m 828 808 l 530 808 q 510 744 510 808 q 530 680 510 680 l 828 680 q 850 744 850 680 q 828 808 850 808 z "},"":{"ha":1360,"x_min":340,"x_max":680,"o":"m 530 680 l 658 680 q 680 744 680 680 q 658 808 680 808 l 530 808 q 510 744 510 808 q 530 680 510 680 m 360 510 l 488 510 q 510 574 510 510 q 488 638 510 638 l 360 638 q 340 574 340 638 q 360 510 340 510 m 360 1020 l 658 1020 q 680 1084 680 1020 q 658 1147 680 1147 l 360 1147 q 340 1084 340 1147 q 360 1020 340 1020 m 360 850 l 658 850 q 680 914 680 850 q 658 977 680 977 l 360 977 q 340 914 340 977 q 360 850 340 850 z "},"":{"ha":1360,"x_min":170,"x_max":1020,"o":"m 828 977 l 700 977 q 680 914 680 977 q 700 850 680 850 l 828 850 q 850 914 850 850 q 828 977 850 977 m 998 1147 l 870 1147 q 850 1084 850 1147 q 870 1020 850 1020 l 998 1020 q 1020 1084 1020 1020 q 998 1147 1020 1147 m 998 638 l 700 638 q 680 574 680 638 q 700 510 680 510 l 998 510 q 1020 574 1020 510 q 998 638 1020 638 m 998 808 l 700 808 q 680 744 680 808 q 700 680 680 680 l 998 680 q 1020 744 1020 680 q 998 808 1020 808 m 318 977 l 190 977 q 170 914 170 977 q 190 850 170 850 l 318 850 q 340 914 340 850 q 318 977 340 977 m 488 1147 l 360 1147 q 340 1084 340 1147 q 360 1020 340 1020 l 488 1020 q 510 1084 510 1020 q 488 1147 510 1147 m 488 638 l 190 638 q 170 574 170 638 q 190 510 170 510 l 488 510 q 510 574 510 510 q 488 638 510 638 m 488 808 l 190 808 q 170 744 170 808 q 190 680 170 680 l 488 680 q 510 744 510 680 q 488 808 510 808 z "},"":{"ha":1360,"x_min":170,"x_max":1020,"o":"m 360 680 l 488 680 q 510 744 510 680 q 488 808 510 808 l 360 808 q 340 744 340 808 q 360 680 340 680 m 190 510 l 318 510 q 340 574 340 510 q 318 638 340 638 l 190 638 q 170 574 170 638 q 190 510 170 510 m 190 1020 l 488 1020 q 510 1084 510 1020 q 488 1147 510 1147 l 190 1147 q 170 1084 170 1147 q 190 1020 170 1020 m 190 850 l 488 850 q 510 914 510 850 q 488 977 510 977 l 190 977 q 170 914 170 977 q 190 850 170 850 m 870 680 l 998 680 q 1020 744 1020 680 q 998 808 1020 808 l 870 808 q 850 744 850 808 q 870 680 850 680 m 700 510 l 828 510 q 850 574 850 510 q 828 638 850 638 l 700 638 q 680 574 680 638 q 700 510 680 510 m 700 1020 l 998 1020 q 1020 1084 1020 1020 q 998 1147 1020 1147 l 700 1147 q 680 1084 680 1147 q 700 1020 680 1020 m 700 850 l 998 850 q 1020 914 1020 850 q 998 977 1020 977 l 700 977 q 680 914 680 977 q 700 850 680 850 z "},"":{"ha":1360,"x_min":340,"x_max":680,"o":"m 360 510 l 658 510 q 680 574 680 510 q 658 638 680 638 l 360 638 q 340 574 340 638 q 360 510 340 510 m 360 340 l 658 340 q 680 404 680 340 q 658 468 680 468 l 360 468 q 340 404 340 468 q 360 340 340 340 z "},"":{"ha":1360,"x_min":0,"x_max":1190,"o":"m 190 850 l 318 850 q 340 914 340 850 q 318 977 340 977 l 190 977 q 170 914 170 977 q 190 850 170 850 m 1040 1020 l 1168 1020 q 1190 1084 1190 1020 q 1168 1147 1190 1147 l 1040 1147 q 1020 1084 1020 1147 q 1040 1020 1020 1020 m 20 1020 l 488 1020 q 510 1084 510 1020 q 488 1147 510 1147 l 20 1147 q 0 1084 0 1147 q 20 1020 0 1020 m 190 680 l 318 680 q 340 744 340 680 q 318 808 340 808 l 190 808 q 170 744 170 808 q 190 680 170 680 m 700 850 l 1168 850 q 1190 914 1190 850 q 1168 977 1190 977 l 700 977 q 680 914 680 977 q 700 850 680 850 m 700 680 l 828 680 q 850 744 850 680 q 828 808 850 808 l 700 808 q 680 744 680 808 q 700 680 680 680 m 700 1020 l 828 1020 q 850 1084 850 1020 q 828 1147 850 1147 l 700 1147 q 680 1084 680 1147 q 700 1020 680 1020 m 1040 680 l 1168 680 q 1190 744 1190 680 q 1168 808 1190 808 l 1040 808 q 1020 744 1020 808 q 1040 680 1020 680 m 190 510 l 318 510 q 340 574 340 510 q 318 638 340 638 l 190 638 q 170 574 170 638 q 190 510 170 510 m 700 510 l 828 510 q 850 574 850 510 q 828 638 850 638 l 700 638 q 680 574 680 638 q 700 510 680 510 m 1040 510 l 1168 510 q 1190 574 1190 510 q 1168 638 1190 638 l 1040 638 q 1020 574 1020 638 q 1040 510 1020 510 z "},"":{"ha":1360,"x_min":0,"x_max":0,"o":""}}}
